<svg width="128" height="128" viewBox="0 0 128 128" fill="none" xmlns="http://www.w3.org/2000/svg">
<path fill-rule="evenodd" clip-rule="evenodd" d="M115.915 67C114.417 93.33 93.3299 114.417 67 115.915V106.897C88.3575 105.425 105.425 88.3575 106.897 67H115.915ZM67 12.0851C74.5814 12.5163 81.7281 14.5717 88.0976 17.9087L83.981 25.9144C78.8458 23.2148 73.0977 21.5232 67 21.103V12.0851ZM70.7732 51.6L80.3217 33.0308C76.284 30.8983 71.7789 29.5324 67 29.1268V46H61V29.1268C44.0633 30.5645 30.5645 44.0632 29.1268 61H39V67H29.1268C30.5645 83.9368 44.0633 97.4355 61 98.8732V82H67V98.8732C83.9368 97.4355 97.4355 83.9368 98.8732 67H89V61H98.8732C98.1651 52.6576 94.5307 45.1494 89.0006 39.5057L94.631 33.8214C101.624 40.9185 106.169 50.4343 106.897 61H115.915C115.172 47.9332 109.604 36.1577 100.965 27.4268L106.595 21.7428C117.354 32.587 124 47.5173 124 64C124 97.1371 97.1371 124 64 124C30.8629 124 4 97.1371 4 64C4 30.8629 30.8629 4 64 4C78.637 4 92.0499 9.24118 102.464 17.9492L102.04 18.4653L102.042 18.4664L74.8094 51.6H75.3595C76.8529 51.6 78.2462 51.8067 79.5395 52.22C80.8329 52.6333 81.8729 53.3133 82.6595 54.26C83.4462 55.1933 83.8395 56.46 83.8395 58.06C83.8395 59.1133 83.6395 60.0533 83.2395 60.88C82.8529 61.7067 82.3329 62.3867 81.6795 62.92C81.0395 63.4533 80.3462 63.8 79.5995 63.96C80.2662 64.04 80.9129 64.2333 81.5395 64.54C82.1662 64.8333 82.7329 65.2467 83.2395 65.78C83.7595 66.3 84.1729 66.9533 84.4795 67.74C84.7862 68.5267 84.9395 69.4467 84.9395 70.5C84.9395 71.98 84.6062 73.2867 83.9395 74.42C83.2862 75.54 82.3262 76.42 81.0595 77.06C79.8062 77.6867 78.2662 78 76.4395 78H66.3595V51.6H70.7732ZM12.0851 67C13.5828 93.33 34.67 114.417 61 115.915V106.897C39.6425 105.425 22.5749 88.3575 21.103 67H12.0851ZM12.0851 61H21.103C22.5749 39.6425 39.6425 22.5749 61 21.103V12.0851C34.67 13.5828 13.5828 34.67 12.0851 61ZM57.7158 51.66C56.4891 51.3 55.0625 51.12 53.4358 51.12C51.8624 51.12 50.3958 51.4133 49.0358 52C47.6891 52.5867 46.5958 53.42 45.7558 54.5C44.9291 55.58 44.5158 56.86 44.5158 58.34C44.5158 59.8067 44.8291 61.04 45.4558 62.04C46.0824 63.04 46.8958 63.8733 47.8958 64.54C48.9091 65.1933 49.9958 65.76 51.1558 66.24C52.3158 66.6933 53.2824 67.1267 54.0558 67.54C54.8424 67.9533 55.4291 68.3933 55.8158 68.86C56.2158 69.3133 56.4158 69.8333 56.4158 70.42C56.4158 71.22 56.1024 71.86 55.4758 72.34C54.8491 72.82 53.9158 73.06 52.6758 73.06C51.9424 73.06 51.1958 72.96 50.4358 72.76C49.6758 72.56 48.9624 72.32 48.2958 72.04C47.6424 71.7467 47.0824 71.4667 46.6158 71.2C46.1624 70.9333 45.8558 70.74 45.6958 70.62L42.7358 75.56C42.9091 75.7333 43.4358 76.06 44.3158 76.54C45.1958 77.0067 46.3491 77.4467 47.7758 77.86C49.2158 78.2733 50.8358 78.48 52.6358 78.48C53.9158 78.48 55.1491 78.32 56.3358 78C57.5224 77.6933 58.5824 77.22 59.5158 76.58C60.4624 75.94 61.2024 75.1333 61.7358 74.16C62.2824 73.1867 62.5558 72.0333 62.5558 70.7C62.5558 69.58 62.3624 68.58 61.9758 67.7C61.6024 66.82 61.0825 66.0467 60.4158 65.38C59.7491 64.7 58.9824 64.1133 58.1158 63.62C57.2491 63.1267 56.3224 62.7 55.3358 62.34C54.2558 61.9267 53.3624 61.54 52.6558 61.18C51.9491 60.82 51.4224 60.44 51.0758 60.04C50.7424 59.64 50.5758 59.1933 50.5758 58.7C50.5758 57.9533 50.8958 57.4 51.5358 57.04C52.1758 56.6667 53.0158 56.48 54.0558 56.48C54.8291 56.48 55.5624 56.6 56.2558 56.84C56.9624 57.08 57.5691 57.3533 58.0758 57.66C58.5958 57.9533 58.9624 58.1867 59.1758 58.36L62.0158 53.6C61.8558 53.4667 61.4024 53.2 60.6558 52.8C59.9224 52.4 58.9424 52.02 57.7158 51.66ZM75.0395 73.28H72.2395V66.82H74.9395C76.1395 66.82 77.0729 67.08 77.7395 67.6C78.4062 68.1067 78.7395 68.9 78.7395 69.98C78.7395 70.66 78.6129 71.2467 78.3595 71.74C78.1062 72.2333 77.7062 72.6133 77.1595 72.88C76.6262 73.1467 75.9195 73.28 75.0395 73.28ZM74.7395 62.2H72.2395V56.32H74.4995C75.5795 56.32 76.4329 56.5133 77.0595 56.9C77.6862 57.2867 77.9995 58.0267 77.9995 59.12C77.9995 59.7333 77.8729 60.2733 77.6195 60.74C77.3795 61.2067 77.0129 61.5667 76.5195 61.82C76.0395 62.0733 75.4462 62.2 74.7395 62.2Z" fill="url(#paint0_linear_1_2)"/>
<defs>
<linearGradient id="paint0_linear_1_2" x1="120" y1="8" x2="7.99999" y2="120" gradientUnits="userSpaceOnUse">
<stop stop-color="#269BEF"/>
<stop offset="0.0001" stop-color="#1EECF9"/>
<stop offset="1" stop-color="#4732CD"/>
</linearGradient>
</defs>
</svg>
