<svg width="941" height="94" viewBox="0 0 941 94" fill="none" xmlns="http://www.w3.org/2000/svg">
<path fill-rule="evenodd" clip-rule="evenodd" d="M87.6668 49.3499C86.4932 69.9752 69.9752 86.4932 49.3499 87.6668V80.6026C66.0798 79.4495 79.4495 66.0798 80.6026 49.3499H87.6668ZM49.3499 6.33321C55.2889 6.67093 60.8869 8.28111 65.8766 10.8953L62.6516 17.1661C58.6291 15.0514 54.1267 13.7265 49.3499 13.3975V6.33321ZM52.3055 37.2864L59.7854 22.7409C56.6224 21.0701 53.0935 20.0005 49.3499 19.6828V32.8998H44.6501V19.6828C31.383 20.809 20.809 31.383 19.6828 44.6501H27.4166V49.3499H19.6828C20.809 62.617 31.383 73.191 44.6501 74.3172V61.1002H49.3499V74.3172C62.617 73.191 73.191 62.617 74.3172 49.3499H66.5834V44.6501H74.3172C73.7625 38.115 70.9159 32.2339 66.5839 27.8126L70.9943 23.3603C76.472 28.9196 80.0324 36.3736 80.6026 44.6501H87.6668C87.0848 34.4143 82.7232 25.1902 75.9561 18.3511L80.366 13.8983C88.7939 22.3932 94 34.0884 94 47C94 72.9572 72.9572 94 47 94C21.0428 94 0 72.9572 0 47C0 21.0428 21.0428 0 47 0C58.4655 0 68.9725 4.10546 77.1301 10.9268L76.7979 11.331L76.7997 11.332L55.4675 37.2864H55.8982C57.0681 37.2864 58.1597 37.4487 59.1728 37.7723C60.186 38.0959 61.0004 38.6286 61.6166 39.3702C62.2328 40.1012 62.5409 41.0938 62.5409 42.3472C62.5409 43.1721 62.3841 43.9086 62.071 44.5562C61.7679 45.2034 61.3609 45.7362 60.8491 46.1541C60.3478 46.5716 59.8045 46.8432 59.2198 46.9686C59.7421 47.0314 60.2484 47.1828 60.7393 47.4229C61.2301 47.6526 61.674 47.9767 62.071 48.3942C62.4784 48.8016 62.802 49.3134 63.0422 49.9296C63.2824 50.5458 63.4027 51.2668 63.4027 52.0917C63.4027 53.2512 63.1416 54.2748 62.6193 55.1622C62.1075 56.0395 61.3555 56.7291 60.3633 57.2304C59.3816 57.7212 58.1752 57.9664 56.7441 57.9664H48.8481V37.2864H52.3055ZM6.33321 49.3499C7.50633 69.9752 24.0248 86.4932 44.6501 87.6668V80.6026C27.9202 79.4495 14.5505 66.0798 13.3974 49.3499H6.33321ZM6.33321 44.6501H13.3974C14.5505 27.9202 27.9202 14.5505 44.6501 13.3975V6.33321C24.0248 7.50633 7.50633 24.0248 6.33321 44.6501ZM42.0774 37.3338C41.1166 37.0517 39.9991 36.9104 38.7248 36.9104C37.492 36.9104 36.3435 37.1406 35.2779 37.6C34.2233 38.0594 33.3669 38.7125 32.7088 39.5584C32.0612 40.4043 31.7376 41.4069 31.7376 42.5664C31.7376 43.7154 31.9828 44.6816 32.4736 45.4646C32.9645 46.248 33.6016 46.9006 34.3851 47.4229C35.179 47.9348 36.0299 48.3787 36.9387 48.7547C37.8475 49.1097 38.6045 49.4492 39.2102 49.7728C39.8264 50.0969 40.2862 50.4414 40.5889 50.8069C40.9024 51.162 41.0592 51.5694 41.0592 52.0288C41.0592 52.6555 40.8135 53.1568 40.3227 53.5328C39.8318 53.9088 39.1008 54.0971 38.1296 54.0971C37.5549 54.0971 36.9701 54.0187 36.3749 53.8619C35.7793 53.7056 35.2205 53.5173 34.6982 53.2981C34.1864 53.0684 33.7479 52.8487 33.3824 52.64C33.0274 52.4313 32.7872 52.2795 32.6619 52.1856L30.343 56.0555C30.4788 56.1913 30.8912 56.4469 31.5808 56.8229C32.2699 57.1885 33.1737 57.5335 34.2912 57.8571C35.4192 58.1806 36.688 58.3429 38.0981 58.3429C39.1008 58.3429 40.067 58.2171 40.9963 57.9664C41.926 57.7263 42.7564 57.3557 43.4875 56.8544C44.229 56.3531 44.8087 55.7209 45.2262 54.9589C45.6546 54.1964 45.8688 53.2926 45.8688 52.2485C45.8688 51.3712 45.717 50.5877 45.4144 49.8982C45.1218 49.2091 44.7148 48.6034 44.1925 48.0811C43.6702 47.5483 43.0695 47.0889 42.3909 46.7024C41.7118 46.3159 40.9858 45.9818 40.2129 45.6997C39.367 45.3761 38.6674 45.0731 38.1136 44.7909C37.5604 44.5088 37.1474 44.2112 36.8763 43.8981C36.6151 43.5846 36.4843 43.2345 36.4843 42.8485C36.4843 42.2633 36.735 41.8299 37.2363 41.5482C37.7376 41.2556 38.3957 41.1093 39.2102 41.1093C39.8163 41.1093 40.3906 41.2032 40.9339 41.3914C41.4872 41.5792 41.9625 41.7934 42.3595 42.0336C42.7669 42.2633 43.0541 42.4461 43.2209 42.5819L45.4459 38.8533C45.3205 38.749 44.965 38.5398 44.3803 38.2267C43.8061 37.9131 43.0381 37.6155 42.0774 37.3338ZM55.6475 54.2693H53.4544V49.2091H55.5692C56.5094 49.2091 57.2404 49.4128 57.7627 49.8198C58.285 50.2167 58.5462 50.8384 58.5462 51.6843C58.5462 52.2171 58.4468 52.6765 58.2481 53.0629C58.0498 53.4494 57.7367 53.747 57.3083 53.9558C56.8904 54.165 56.3371 54.2693 55.6475 54.2693ZM55.4128 45.5899H53.4544V40.984H55.2246C56.0705 40.984 56.7391 41.1353 57.2299 41.4384C57.7208 41.7415 57.9664 42.3207 57.9664 43.1771C57.9664 43.6579 57.8671 44.0809 57.6688 44.4464C57.4806 44.8119 57.1935 45.094 56.807 45.2923C56.431 45.4905 55.9661 45.5899 55.4128 45.5899Z" fill="url(#paint0_linear_252_19)"/>
<path d="M145.8 18.0538C149.525 18.0538 152.765 18.4768 155.521 19.3228C158.307 20.1372 160.514 21.0148 162.142 21.9548C163.801 22.8948 164.803 23.5058 165.148 23.7878L159.418 33.2818C158.949 32.8742 158.103 32.3102 156.882 31.5898C155.693 30.8378 154.253 30.1798 152.562 29.6158C150.871 29.0202 149.025 28.7228 147.021 28.7228C144.171 28.7228 141.887 29.2714 140.164 30.3678C138.474 31.4334 137.629 32.9998 137.629 35.0678C137.629 36.4462 138.083 37.6844 138.99 38.7808C139.898 39.8464 141.229 40.8488 142.982 41.7888C144.767 42.7288 146.942 43.7158 149.51 44.7498C151.764 45.6274 153.909 46.6452 155.943 47.8048C158.01 48.9644 159.856 50.3428 161.485 51.9408C163.113 53.5072 164.396 55.3248 165.335 57.3928C166.275 59.4608 166.744 61.8262 166.744 64.4898C166.744 67.4354 166.134 70.0204 164.913 72.2448C163.723 74.4692 162.064 76.3338 159.935 77.8378C157.837 79.3418 155.427 80.4698 152.703 81.2218C150.011 81.9738 147.162 82.3498 144.156 82.3498C140.086 82.3498 136.423 81.8798 133.167 80.9398C129.942 79.9682 127.329 78.9504 125.325 77.8848C123.321 76.7884 122.147 76.0672 121.803 75.7228L127.767 65.8528C128.142 66.1348 128.847 66.5894 129.88 67.2158C130.945 67.8422 132.243 68.5002 133.778 69.1898C135.312 69.8478 136.971 70.4118 138.756 70.8818C140.572 71.3202 142.403 71.5398 144.25 71.5398C147.663 71.5398 150.229 70.8348 151.952 69.4248C153.674 68.0148 154.534 66.1818 154.534 63.9258C154.534 62.2022 153.986 60.6982 152.891 59.4138C151.795 58.1294 150.246 56.9382 148.242 55.8418C146.269 54.7454 143.906 53.6482 141.151 52.5518C138.395 51.3614 135.829 49.9984 133.449 48.4628C131.101 46.8964 129.207 44.9848 127.767 42.7288C126.326 40.4412 125.607 37.6528 125.607 34.3628C125.607 31.0728 126.53 28.2058 128.377 25.7618C130.256 23.3178 132.729 21.4224 135.797 20.0748C138.865 18.7272 142.199 18.0538 145.8 18.0538ZM200.685 41.5068C203.315 41.5068 205.882 42.0554 208.387 43.1518C210.891 44.2174 212.942 45.9248 214.539 48.2748C216.167 50.6248 216.981 53.6952 216.981 57.4868V81.2218H205.053V59.5078C205.053 56.3434 204.333 53.9934 202.892 52.4578C201.484 50.9222 199.574 50.1548 197.163 50.1548C195.598 50.1548 194.079 50.5932 192.608 51.4708C191.137 52.3168 189.931 53.5072 188.992 55.0428C188.084 56.5784 187.63 58.3174 187.63 60.2598V81.2218H175.702V16.5498H187.63V48.7918C187.943 47.7262 188.71 46.6298 189.931 45.5018C191.152 44.3738 192.702 43.4338 194.58 42.6818C196.459 41.8982 198.493 41.5068 200.685 41.5068ZM256.762 81.2218V74.4538C256.512 75.1742 255.808 76.1612 254.649 77.4148C253.49 78.6684 251.925 79.8118 249.953 80.8458C247.981 81.8482 245.68 82.3498 243.05 82.3498C239.387 82.3498 236.131 81.4722 233.282 79.7178C230.433 77.9318 228.195 75.5032 226.566 72.4328C224.938 69.3624 224.125 65.8682 224.125 61.9518C224.125 58.0354 224.938 54.5412 226.566 51.4708C228.195 48.4004 230.433 45.9718 233.282 44.1858C236.131 42.3998 239.387 41.5068 243.05 41.5068C245.617 41.5068 247.855 41.9452 249.765 42.8228C251.675 43.6688 253.209 44.6712 254.367 45.8308C255.557 46.9904 256.324 48.0082 256.668 48.8858V42.6348H268.409V81.2218H256.762ZM235.771 61.9518C235.771 64.1138 236.256 66.0254 237.227 67.6858C238.197 69.3462 239.481 70.6314 241.077 71.5398C242.674 72.4482 244.412 72.9028 246.29 72.9028C248.294 72.9028 250.062 72.4482 251.597 71.5398C253.131 70.5998 254.336 69.2992 255.213 67.6388C256.12 65.9784 256.574 64.0822 256.574 61.9518C256.574 59.8214 256.12 57.9252 255.213 56.2648C254.336 54.6044 253.131 53.3038 251.597 52.3638C250.062 51.4238 248.294 50.9538 246.29 50.9538C244.412 50.9538 242.674 51.4238 241.077 52.3638C239.481 53.2722 238.197 54.5574 237.227 56.2178C236.256 57.8782 235.771 59.7898 235.771 61.9518ZM320.841 81.2218H309.101V74.4538C308.6 75.5818 307.677 76.7568 306.33 77.9788C304.984 79.2008 303.325 80.2348 301.352 81.0808C299.412 81.9268 297.282 82.3498 294.966 82.3498C291.303 82.3498 288.078 81.4722 285.292 79.7178C282.536 77.9318 280.376 75.5032 278.811 72.4328C277.277 69.3624 276.51 65.8682 276.51 61.9518C276.51 58.0354 277.277 54.5412 278.811 51.4708C280.376 48.4004 282.536 45.9718 285.292 44.1858C288.078 42.3998 291.303 41.5068 294.966 41.5068C297.564 41.5068 299.865 41.9298 301.869 42.7758C303.904 43.6218 305.532 44.6242 306.753 45.7838C307.974 46.9434 308.71 47.9774 308.96 48.8858V16.5498H320.841V81.2218ZM288.156 61.9518C288.156 64.1138 288.611 66.0254 289.518 67.6858C290.457 69.3462 291.694 70.6314 293.228 71.5398C294.762 72.4482 296.468 72.9028 298.347 72.9028C300.351 72.9028 302.151 72.4482 303.747 71.5398C305.344 70.5998 306.612 69.2992 307.551 67.6388C308.49 65.9784 308.96 64.0822 308.96 61.9518C308.96 59.8214 308.49 57.9252 307.551 56.2648C306.612 54.6044 305.344 53.3038 303.747 52.3638C302.151 51.4238 300.351 50.9538 298.347 50.9538C296.468 50.9538 294.762 51.4238 293.228 52.3638C291.694 53.2722 290.457 54.5574 289.518 56.2178C288.611 57.8782 288.156 59.7898 288.156 61.9518ZM348.353 82.3498C344.252 82.3498 340.589 81.4722 337.364 79.7178C334.171 77.9634 331.666 75.5664 329.85 72.5268C328.034 69.4564 327.127 65.9622 327.127 62.0458C327.127 58.1294 328.034 54.6352 329.85 51.5648C331.666 48.4628 334.171 46.0188 337.364 44.2328C340.589 42.4152 344.252 41.5068 348.353 41.5068C352.485 41.5068 356.117 42.4152 359.248 44.2328C362.41 46.0188 364.883 48.4628 366.668 51.5648C368.452 54.6352 369.344 58.1294 369.344 62.0458C369.344 65.9622 368.452 69.4564 366.668 72.5268C364.883 75.5664 362.41 77.9634 359.248 79.7178C356.117 81.4722 352.485 82.3498 348.353 82.3498ZM348.353 72.4798C350.357 72.4798 352.078 72.0414 353.518 71.1638C354.99 70.2554 356.117 69.0018 356.9 67.4038C357.713 65.8058 358.121 64.0044 358.121 61.9988C358.121 59.9624 357.713 58.1448 356.9 56.5468C356.117 54.9488 354.99 53.6952 353.518 52.7868C352.078 51.8468 350.357 51.3768 348.353 51.3768C346.38 51.3768 344.658 51.8468 343.187 52.7868C341.716 53.6952 340.557 54.9488 339.712 56.5468C338.898 58.1448 338.491 59.9624 338.491 61.9988C338.491 64.0044 338.898 65.8058 339.712 67.4038C340.557 69.0018 341.716 70.2554 343.187 71.1638C344.658 72.0414 346.38 72.4798 348.353 72.4798ZM405.386 56.2648L396.088 81.2218H384.817L372.983 42.6348H385.569L392.049 68.4378L401.253 43.3868H409.566L418.676 68.4378L425.203 42.6348H437.836L426.002 81.2218H414.778L405.386 56.2648ZM443.248 81.2218V16.5498H455.129V48.8858C455.379 47.9774 456.115 46.9434 457.336 45.7838C458.557 44.6242 460.169 43.6218 462.173 42.7758C464.21 41.9298 466.522 41.5068 469.127 41.5068C472.788 41.5068 475.995 42.3998 478.754 44.1858C481.534 45.9718 483.699 48.4004 485.233 51.4708C486.796 54.5412 487.581 58.0354 487.581 61.9518C487.581 65.8682 486.796 69.3624 485.233 72.4328C483.699 75.5032 481.534 77.9318 478.754 79.7178C475.995 81.4722 472.788 82.3498 469.127 82.3498C466.808 82.3498 464.665 81.9268 462.69 81.0808C460.749 80.2348 459.106 79.2008 457.759 77.9788C456.413 76.7568 455.49 75.5818 454.988 74.4538V81.2218H443.248ZM475.936 61.9518C475.936 59.7898 475.466 57.8782 474.527 56.2178C473.617 54.5574 472.392 53.2722 470.858 52.3638C469.325 51.4238 467.622 50.9538 465.744 50.9538C463.741 50.9538 461.939 51.4238 460.342 52.3638C458.745 53.3038 457.477 54.6044 456.538 56.2648C455.599 57.9252 455.129 59.8214 455.129 61.9518C455.129 64.0822 455.599 65.9784 456.538 67.6388C457.477 69.2992 458.745 70.5998 460.342 71.5398C461.939 72.4482 463.741 72.9028 465.744 72.9028C467.622 72.9028 469.325 72.4482 470.858 71.5398C472.392 70.6314 473.617 69.3462 474.527 67.6858C475.466 66.0254 475.936 64.1138 475.936 61.9518ZM524.951 81.2218V74.4538C524.702 75.1742 523.997 76.1612 522.838 77.4148C521.679 78.6684 520.116 79.8118 518.142 80.8458C516.168 81.8482 513.871 82.3498 511.237 82.3498C507.576 82.3498 504.318 81.4722 501.471 79.7178C498.624 77.9318 496.386 75.5032 494.757 72.4328C493.128 69.3624 492.313 65.8682 492.313 61.9518C492.313 58.0354 493.128 54.5412 494.757 51.4708C496.386 48.4004 498.624 45.9718 501.471 44.1858C504.318 42.3998 507.576 41.5068 511.237 41.5068C513.805 41.5068 516.043 41.9452 517.958 42.8228C519.866 43.6688 521.4 44.6712 522.559 45.8308C523.748 46.9904 524.511 48.0082 524.856 48.8858V42.6348H536.596V81.2218H524.951ZM503.958 61.9518C503.958 64.1138 504.45 66.0254 505.418 67.6858C506.387 69.3462 507.671 70.6314 509.271 71.5398C510.863 72.4482 512.602 72.9028 514.48 72.9028C516.484 72.9028 518.252 72.4482 519.785 71.5398C521.319 70.5998 522.53 69.2992 523.403 67.6388C524.313 65.9784 524.768 64.0822 524.768 61.9518C524.768 59.8214 524.313 57.9252 523.403 56.2648C522.53 54.6044 521.319 53.3038 519.785 52.3638C518.252 51.4238 516.484 50.9538 514.48 50.9538C512.602 50.9538 510.863 51.4238 509.271 52.3638C507.671 53.2722 506.387 54.5574 505.418 56.2178C504.45 57.8782 503.958 59.7898 503.958 61.9518ZM571.002 41.5068C573.629 41.5068 576.197 42.0554 578.699 43.1518C581.201 44.2174 583.256 45.9248 584.856 48.2748C586.477 50.6248 587.292 53.6952 587.292 57.4868V81.2218H575.412V59.5078C575.412 56.3434 574.664 53.9934 573.159 52.4578C571.655 50.9222 569.696 50.1548 567.289 50.1548C565.69 50.1548 564.171 50.5932 562.733 51.4708C561.324 52.3168 560.164 53.5072 559.262 55.0428C558.381 56.5784 557.941 58.3174 557.941 60.2598V81.2218H546.113V42.6348H557.941V48.7918C558.257 47.7262 559.027 46.6298 560.245 45.5018C561.5 44.3738 563.063 43.4338 564.941 42.6818C566.82 41.8982 568.838 41.5068 571.002 41.5068ZM642.192 18.0538C645.919 18.0538 649.155 18.4768 651.914 19.3228C654.695 20.1372 656.904 21.0148 658.533 21.9548C660.191 22.8948 661.196 23.5058 661.541 23.7878L655.81 33.2818C655.341 32.8742 654.497 32.3102 653.272 31.5898C652.083 30.8378 650.645 30.1798 648.95 29.6158C647.262 29.0202 645.413 28.7228 643.41 28.7228C640.563 28.7228 638.274 29.2714 636.557 30.3678C634.862 31.4334 634.018 32.9998 634.018 35.0678C634.018 36.4462 634.473 37.6844 635.383 38.7808C636.292 39.8464 637.621 40.8488 639.374 41.7888C641.157 42.7288 643.337 43.7158 645.897 44.7498C648.157 45.6274 650.3 46.6452 652.332 47.8048C654.402 48.9644 656.251 50.3428 657.872 51.9408C659.501 53.5072 660.785 55.3248 661.725 57.3928C662.664 59.4608 663.133 61.8262 663.133 64.4898C663.133 67.4354 662.524 70.0204 661.306 72.2448C660.11 74.4692 658.452 76.3338 656.324 77.8378C654.226 79.3418 651.819 80.4698 649.097 81.2218C646.404 81.9738 643.549 82.3498 640.548 82.3498C636.476 82.3498 632.814 81.8798 629.556 80.9398C626.335 79.9682 623.716 78.9504 621.713 77.8848C619.709 76.7884 618.535 76.0672 618.191 75.7228L624.156 65.8528C624.53 66.1348 625.235 66.5894 626.269 67.2158C627.333 67.8422 628.632 68.5002 630.165 69.1898C631.699 69.8478 633.365 70.4118 635.148 70.8818C636.96 71.3202 638.795 71.5398 640.644 71.5398C644.056 71.5398 646.624 70.8348 648.341 69.4248C650.065 68.0148 650.924 66.1818 650.924 63.9258C650.924 62.2022 650.381 60.6982 649.28 59.4138C648.187 58.1294 646.638 56.9382 644.635 55.8418C642.661 54.7454 640.299 53.6482 637.54 52.5518C634.788 51.3614 632.22 49.9984 629.843 48.4628C627.495 46.8964 625.594 44.9848 624.156 42.7288C622.718 40.4412 621.999 37.6528 621.999 34.3628C621.999 31.0728 622.923 28.2058 624.765 25.7618C626.643 23.3178 629.116 21.4224 632.191 20.0748C635.258 18.7272 638.589 18.0538 642.192 18.0538ZM692.051 72.9028C694.084 72.9028 695.742 72.5584 697.026 71.8688C698.31 71.1792 699.161 70.6622 699.565 70.3178L705.105 78.4958C704.664 78.8402 703.835 79.3264 702.617 79.9528C701.429 80.5792 699.91 81.1278 698.061 81.5978C696.248 82.0994 694.179 82.3498 691.86 82.3498C687.759 82.3498 684.097 81.5354 680.876 79.9058C677.684 78.2454 675.145 75.8954 673.267 72.8558C671.418 69.7854 670.493 66.1348 670.493 61.9048C670.493 57.6432 671.418 53.9934 673.267 50.9538C675.145 47.9142 677.684 45.5804 680.876 43.9508C684.097 42.3212 687.759 41.5068 691.86 41.5068C694.15 41.5068 696.197 41.7572 698.017 42.2588C699.829 42.7604 701.348 43.3398 702.573 43.9978C703.791 44.6242 704.62 45.1412 705.061 45.5488L699.425 53.7738C699.205 53.5234 698.78 53.1782 698.156 52.7398C697.532 52.3014 696.703 51.8938 695.669 51.5178C694.663 51.1418 693.46 50.9538 692.051 50.9538C690.297 50.9538 688.639 51.4084 687.076 52.3168C685.543 53.2252 684.288 54.5104 683.319 56.1708C682.343 57.8004 681.859 59.7112 681.859 61.9048C681.859 64.0984 682.343 66.0254 683.319 67.6858C684.288 69.3462 685.543 70.6314 687.076 71.5398C688.639 72.4482 690.297 72.9028 692.051 72.9028ZM742.145 81.2218V74.4538C741.896 75.1742 741.191 76.1612 740.032 77.4148C738.872 78.6684 737.31 79.8118 735.336 80.8458C733.362 81.8482 731.065 82.3498 728.431 82.3498C724.77 82.3498 721.512 81.4722 718.665 79.7178C715.818 77.9318 713.58 75.5032 711.951 72.4328C710.322 69.3624 709.507 65.8682 709.507 61.9518C709.507 58.0354 710.322 54.5412 711.951 51.4708C713.58 48.4004 715.818 45.9718 718.665 44.1858C721.512 42.3998 724.77 41.5068 728.431 41.5068C730.999 41.5068 733.237 41.9452 735.152 42.8228C737.06 43.6688 738.594 44.6712 739.753 45.8308C740.942 46.9904 741.705 48.0082 742.05 48.8858V42.6348H753.79V81.2218H742.145ZM721.152 61.9518C721.152 64.1138 721.644 66.0254 722.612 67.6858C723.581 69.3462 724.865 70.6314 726.465 71.5398C728.057 72.4482 729.796 72.9028 731.674 72.9028C733.677 72.9028 735.446 72.4482 736.979 71.5398C738.513 70.5998 739.724 69.2992 740.597 67.6388C741.507 65.9784 741.962 64.0822 741.962 61.9518C741.962 59.8214 741.507 57.9252 740.597 56.2648C739.724 54.6044 738.513 53.3038 736.979 52.3638C735.446 51.4238 733.677 50.9538 731.674 50.9538C729.796 50.9538 728.057 51.4238 726.465 52.3638C724.865 53.2722 723.581 54.5574 722.612 56.2178C721.644 57.8782 721.152 59.7898 721.152 61.9518ZM788.196 41.5068C790.823 41.5068 793.391 42.0554 795.893 43.1518C798.395 44.2174 800.45 45.9248 802.049 48.2748C803.671 50.6248 804.486 53.6952 804.486 57.4868V81.2218H792.606V59.5078C792.606 56.3434 791.858 53.9934 790.353 52.4578C788.849 50.9222 786.89 50.1548 784.483 50.1548C782.884 50.1548 781.365 50.5932 779.927 51.4708C778.518 52.3168 777.358 53.5072 776.456 55.0428C775.575 56.5784 775.135 58.3174 775.135 60.2598V81.2218H763.307V42.6348H775.135V48.7918C775.451 47.7262 776.221 46.6298 777.439 45.5018C778.694 44.3738 780.257 43.4338 782.135 42.6818C784.014 41.8982 786.031 41.5068 788.196 41.5068ZM838.275 41.5068C840.902 41.5068 843.47 42.0554 845.973 43.1518C848.475 44.2174 850.529 45.9248 852.129 48.2748C853.75 50.6248 854.565 53.6952 854.565 57.4868V81.2218H842.685V59.5078C842.685 56.3434 841.937 53.9934 840.433 52.4578C838.928 50.9222 836.969 50.1548 834.563 50.1548C832.963 50.1548 831.444 50.5932 830.006 51.4708C828.597 52.3168 827.438 53.5072 826.535 55.0428C825.655 56.5784 825.214 58.3174 825.214 60.2598V81.2218H813.386V42.6348H825.214V48.7918C825.53 47.7262 826.3 46.6298 827.518 45.5018C828.773 44.3738 830.336 43.4338 832.214 42.6818C834.093 41.8982 836.111 41.5068 838.275 41.5068ZM872.902 64.6308C872.96 66.3544 873.415 67.8892 874.267 69.2368C875.11 70.5844 876.314 71.6492 877.877 72.4328C879.476 73.1848 881.399 73.5608 883.659 73.5608C885.662 73.5608 887.43 73.3104 888.964 72.8088C890.497 72.3072 891.796 71.7124 892.86 71.0228C893.953 70.3024 894.768 69.5974 895.303 68.9078L900.33 76.3338C899.449 77.4302 898.275 78.4334 896.808 79.3418C895.362 80.2502 893.52 80.9714 891.26 81.5038C889.037 82.0678 886.242 82.3498 882.859 82.3498C878.632 82.3498 874.905 81.5192 871.684 79.8588C868.484 78.1984 865.982 75.8168 864.17 72.7148C862.38 69.5812 861.492 65.8374 861.492 61.4818C861.492 57.7218 862.291 54.3378 863.884 51.3298C865.513 48.2902 867.846 45.8932 870.884 44.1388C873.951 42.3844 877.627 41.5068 881.92 41.5068C885.985 41.5068 889.507 42.2904 892.486 43.8568C895.457 45.3924 897.762 47.6484 899.391 50.6248C901.012 53.6012 901.827 57.2518 901.827 61.5758C901.827 61.8262 901.812 62.3432 901.783 63.1268C901.783 63.8788 901.753 64.3804 901.687 64.6308H872.902ZM890.468 57.2048C890.431 56.2024 890.123 55.1368 889.529 54.0088C888.964 52.8808 888.069 51.9254 886.85 51.1418C885.662 50.3274 884.077 49.9198 882.103 49.9198C880.137 49.9198 878.493 50.3112 877.172 51.0948C875.888 51.8468 874.92 52.7868 874.267 53.9148C873.635 55.0112 873.276 56.1084 873.181 57.2048H890.468ZM920.919 81.2218H909.084V42.6348H920.919V48.8858H920.684C920.904 48.1338 921.499 47.1784 922.467 46.0188C923.465 44.8592 924.845 43.8252 926.598 42.9168C928.352 41.9768 930.465 41.5068 932.938 41.5068C934.721 41.5068 936.335 41.7734 937.774 42.3058C939.248 42.8074 940.298 43.3082 940.921 43.8098L936.277 53.5388C935.837 53.0064 935.051 52.4894 933.929 51.9878C932.828 51.4554 931.471 51.1888 929.842 51.1888C927.868 51.1888 926.21 51.7374 924.859 52.8338C923.546 53.8994 922.563 55.2154 921.902 56.7818C921.249 58.3174 920.919 59.7582 920.919 61.1058V81.2218Z" id="text" />
<defs>
<linearGradient id="paint0_linear_252_19" x1="90.8667" y1="3.13333" x2="3.13333" y2="90.8667" gradientUnits="userSpaceOnUse">
<stop stop-color="#269BEF"/>
<stop offset="0.0001" stop-color="#1EECF9"/>
<stop offset="1" stop-color="#4732CD"/>
</linearGradient>
</defs>
<style>
    #text {
        fill: #333;
    }

    @media (prefers-color-scheme: dark) {
        #text {
            fill: #fff;
        }
    }
</style>
</svg>
