<svg width="1920" height="400" viewBox="0 0 1920 400" fill="none" xmlns="http://www.w3.org/2000/svg">
<path fill-rule="evenodd" clip-rule="evenodd" d="M450.229 205.156C447.654 250.411 411.411 286.654 366.156 289.229V273.729C402.864 271.199 432.199 241.864 434.729 205.156H450.229ZM366.156 110.771C379.187 111.512 391.47 115.045 402.418 120.781L395.342 134.54C386.516 129.9 376.637 126.993 366.156 126.271V110.771ZM372.641 178.687L389.053 146.772C382.113 143.106 374.37 140.759 366.156 140.062V169.062H355.844V140.062C326.734 142.533 303.533 165.734 301.062 194.844H318.031V205.156H301.062C303.533 234.266 326.734 257.467 355.844 259.938V230.938H366.156V259.938C395.266 257.467 418.467 234.266 420.938 205.156H403.969V194.844H420.938C419.721 180.505 413.475 167.601 403.97 157.9L413.647 148.131C425.666 160.329 433.478 176.684 434.729 194.844H450.229C448.952 172.385 439.382 152.146 424.534 137.14L434.21 127.37C452.702 146.009 464.125 171.67 464.125 200C464.125 256.954 417.954 303.125 361 303.125C304.046 303.125 257.875 256.954 257.875 200C257.875 143.046 304.046 96.875 361 96.875C386.157 96.875 409.211 105.883 427.11 120.85L426.381 121.737L426.385 121.739L379.579 178.687H380.524C383.091 178.687 385.486 179.043 387.709 179.753C389.932 180.463 391.719 181.632 393.071 183.259C394.423 184.863 395.099 187.041 395.099 189.791C395.099 191.601 394.755 193.217 394.068 194.638C393.403 196.058 392.51 197.227 391.387 198.144C390.287 199.06 389.095 199.656 387.812 199.931C388.958 200.069 390.069 200.401 391.146 200.928C392.223 201.432 393.197 202.143 394.068 203.059C394.962 203.953 395.672 205.076 396.199 206.428C396.726 207.78 396.99 209.362 396.99 211.172C396.99 213.716 396.417 215.962 395.271 217.909C394.148 219.834 392.498 221.347 390.321 222.447C388.167 223.524 385.52 224.062 382.38 224.062H365.055V178.687H372.641ZM271.771 205.156C274.345 250.411 310.589 286.654 355.844 289.229V273.729C319.136 271.199 289.801 241.864 287.271 205.156H271.771ZM271.771 194.844H287.271C289.801 158.136 319.136 128.801 355.844 126.271V110.771C310.589 113.345 274.345 149.589 271.771 194.844ZM350.199 178.791C348.091 178.172 345.639 177.862 342.843 177.862C340.138 177.862 337.618 178.367 335.28 179.375C332.966 180.383 331.087 181.816 329.643 183.672C328.222 185.528 327.512 187.728 327.512 190.272C327.512 192.793 328.05 194.913 329.127 196.631C330.204 198.35 331.602 199.782 333.321 200.928C335.063 202.051 336.93 203.025 338.924 203.85C340.918 204.629 342.579 205.374 343.908 206.084C345.26 206.795 346.269 207.551 346.933 208.353C347.621 209.132 347.965 210.026 347.965 211.034C347.965 212.409 347.426 213.509 346.349 214.334C345.272 215.159 343.668 215.572 341.537 215.572C340.276 215.572 338.993 215.4 337.687 215.056C336.38 214.713 335.154 214.3 334.008 213.819C332.885 213.315 331.923 212.833 331.121 212.375C330.342 211.917 329.815 211.584 329.54 211.378L324.452 219.869C324.75 220.167 325.655 220.728 327.168 221.553C328.68 222.355 330.663 223.112 333.115 223.822C335.59 224.532 338.374 224.888 341.468 224.888C343.668 224.888 345.788 224.612 347.827 224.062C349.867 223.535 351.689 222.722 353.293 221.622C354.92 220.522 356.192 219.135 357.108 217.463C358.048 215.79 358.518 213.807 358.518 211.516C358.518 209.591 358.185 207.872 357.521 206.359C356.879 204.847 355.986 203.518 354.84 202.372C353.694 201.203 352.376 200.195 350.887 199.347C349.397 198.499 347.804 197.766 346.108 197.147C344.252 196.437 342.717 195.772 341.502 195.153C340.288 194.534 339.382 193.881 338.787 193.194C338.214 192.506 337.927 191.738 337.927 190.891C337.927 189.607 338.477 188.656 339.577 188.038C340.677 187.396 342.121 187.075 343.908 187.075C345.238 187.075 346.498 187.281 347.69 187.694C348.904 188.106 349.947 188.576 350.818 189.103C351.712 189.607 352.342 190.008 352.708 190.306L357.59 182.125C357.315 181.896 356.535 181.437 355.252 180.75C353.992 180.062 352.307 179.409 350.199 178.791ZM379.974 215.95H375.162V204.847H379.802C381.865 204.847 383.469 205.294 384.615 206.187C385.761 207.058 386.334 208.422 386.334 210.278C386.334 211.447 386.116 212.455 385.68 213.303C385.245 214.151 384.558 214.804 383.618 215.262C382.701 215.721 381.487 215.95 379.974 215.95ZM379.459 196.906H375.162V186.8H379.046C380.902 186.8 382.369 187.132 383.446 187.797C384.523 188.462 385.062 189.733 385.062 191.612C385.062 192.667 384.844 193.595 384.409 194.397C383.996 195.199 383.366 195.818 382.518 196.253C381.693 196.688 380.673 196.906 379.459 196.906Z" fill="url(#paint0_linear_201_2)"/>
<path d="M559.216 278H555.472L552.64 270.128H538.96L536.08 278H532.336L543.952 246.32H547.648L559.216 278ZM545.824 250.88H545.776L540.064 266.912H551.584L545.824 250.88ZM579.229 244.976V262.16C579.357 261.584 579.725 260.96 580.333 260.288C580.973 259.584 581.821 258.992 582.877 258.512C583.965 258 585.197 257.744 586.573 257.744C588.397 257.744 590.061 258.176 591.565 259.04C593.069 259.904 594.253 261.12 595.117 262.688C596.013 264.256 596.461 266.08 596.461 268.16C596.461 270.24 596.013 272.064 595.117 273.632C594.253 275.2 593.069 276.416 591.565 277.28C590.061 278.144 588.397 278.576 586.573 278.576C585.261 278.576 584.061 278.32 582.973 277.808C581.917 277.296 581.053 276.688 580.381 275.984C579.741 275.28 579.341 274.624 579.181 274.016V278H575.629V244.976H579.229ZM592.957 268.16C592.957 266.688 592.621 265.392 591.949 264.272C591.309 263.152 590.445 262.288 589.357 261.68C588.301 261.04 587.181 260.72 585.997 260.72C584.045 260.72 582.429 261.408 581.149 262.784C579.869 264.16 579.229 265.952 579.229 268.16C579.229 270.368 579.869 272.16 581.149 273.536C582.429 274.88 584.045 275.552 585.997 275.552C587.213 275.552 588.349 275.248 589.405 274.64C590.461 274.032 591.309 273.168 591.949 272.048C592.621 270.928 592.957 269.632 592.957 268.16ZM610.65 257.744C611.482 257.744 612.234 257.856 612.906 258.08C613.578 258.272 614.106 258.512 614.49 258.8L613.002 261.776C612.682 261.488 612.234 261.248 611.658 261.056C611.114 260.864 610.474 260.768 609.738 260.768C608.746 260.768 607.85 261.104 607.05 261.776C606.282 262.416 605.674 263.232 605.226 264.224C604.81 265.184 604.602 266.096 604.602 266.96V278H601.05V258.32H604.602V261.344C604.954 260.512 605.674 259.712 606.762 258.944C607.85 258.144 609.146 257.744 610.65 257.744ZM626.347 278.576C624.395 278.576 622.619 278.128 621.019 277.232C619.451 276.304 618.219 275.056 617.323 273.488C616.459 271.888 616.027 270.128 616.027 268.208C616.027 266.288 616.459 264.528 617.323 262.928C618.219 261.328 619.451 260.064 621.019 259.136C622.619 258.208 624.395 257.744 626.347 257.744C628.299 257.744 630.043 258.208 631.579 259.136C633.147 260.064 634.363 261.328 635.227 262.928C636.123 264.496 636.571 266.256 636.571 268.208C636.571 270.16 636.139 271.92 635.275 273.488C634.411 275.056 633.195 276.304 631.627 277.232C630.059 278.128 628.299 278.576 626.347 278.576ZM626.347 275.456C628.363 275.456 629.995 274.768 631.243 273.392C632.491 272.016 633.115 270.288 633.115 268.208C633.115 266.096 632.491 264.352 631.243 262.976C629.995 261.568 628.363 260.864 626.347 260.864C624.299 260.864 622.635 261.568 621.355 262.976C620.107 264.352 619.483 266.096 619.483 268.208C619.483 270.288 620.107 272.016 621.355 273.392C622.635 274.768 624.299 275.456 626.347 275.456ZM645.406 278L640.27 258.32H644.062L647.71 273.68L652.75 258.704H655.918L660.958 273.68L664.606 258.32H668.398L663.31 278H659.422L654.334 262.688L649.246 278H645.406ZM680.608 257.744C682.112 257.744 683.424 257.968 684.544 258.416C685.664 258.864 686.464 259.248 686.944 259.568L685.408 261.872C684.8 261.456 684.176 261.104 683.536 260.816C682.896 260.496 682.016 260.336 680.896 260.336C679.648 260.336 678.624 260.592 677.824 261.104C677.024 261.584 676.624 262.272 676.624 263.168C676.624 264 677.008 264.688 677.776 265.232C678.576 265.744 679.744 266.192 681.28 266.576C683.264 267.056 684.8 267.728 685.888 268.592C686.976 269.424 687.52 270.704 687.52 272.432C687.52 274.48 686.72 276.016 685.12 277.04C683.52 278.064 681.568 278.576 679.264 278.576C677.44 278.576 675.952 278.336 674.8 277.856C673.648 277.344 672.784 276.864 672.208 276.416L673.792 273.824C673.824 273.824 674.032 273.984 674.416 274.304C674.8 274.624 675.44 274.944 676.336 275.264C677.232 275.584 678.16 275.744 679.12 275.744C680.528 275.744 681.68 275.44 682.576 274.832C683.472 274.224 683.92 273.424 683.92 272.432C683.92 271.408 683.52 270.656 682.72 270.176C681.952 269.664 680.8 269.216 679.264 268.832C677.408 268.384 675.904 267.712 674.752 266.816C673.632 265.92 673.072 264.672 673.072 263.072C673.072 261.472 673.808 260.192 675.28 259.232C676.752 258.24 678.528 257.744 680.608 257.744ZM695.271 268.448C695.303 269.728 695.591 270.928 696.135 272.048C696.679 273.168 697.447 274.064 698.439 274.736C699.463 275.408 700.663 275.744 702.039 275.744C704.695 275.744 706.919 274.576 708.711 272.24L710.727 274.496C709.799 275.872 708.631 276.896 707.223 277.568C705.847 278.24 704.071 278.576 701.895 278.576C699.911 278.576 698.135 278.128 696.567 277.232C695.031 276.304 693.831 275.04 692.967 273.44C692.135 271.808 691.719 269.968 691.719 267.92C691.719 266.032 692.151 264.32 693.015 262.784C693.879 261.216 695.063 259.984 696.567 259.088C698.071 258.192 699.767 257.744 701.655 257.744C703.383 257.744 704.951 258.16 706.359 258.992C707.799 259.792 708.935 260.944 709.767 262.448C710.631 263.92 711.063 265.616 711.063 267.536C711.063 267.984 711.047 268.288 711.015 268.448H695.271ZM707.559 266.384C707.495 265.424 707.223 264.496 706.743 263.6C706.295 262.672 705.639 261.904 704.775 261.296C703.911 260.688 702.887 260.384 701.703 260.384C699.847 260.384 698.359 260.992 697.239 262.208C696.119 263.424 695.511 264.816 695.415 266.384H707.559ZM726.347 257.744C727.179 257.744 727.931 257.856 728.603 258.08C729.275 258.272 729.803 258.512 730.187 258.8L728.699 261.776C728.379 261.488 727.931 261.248 727.355 261.056C726.811 260.864 726.171 260.768 725.435 260.768C724.443 260.768 723.547 261.104 722.747 261.776C721.979 262.416 721.371 263.232 720.923 264.224C720.507 265.184 720.299 266.096 720.299 266.96V278H716.747V258.32H720.299V261.344C720.651 260.512 721.371 259.712 722.459 258.944C723.547 258.144 724.843 257.744 726.347 257.744ZM748.039 268.448C748.071 269.728 748.359 270.928 748.903 272.048C749.447 273.168 750.215 274.064 751.207 274.736C752.231 275.408 753.431 275.744 754.807 275.744C757.463 275.744 759.687 274.576 761.479 272.24L763.495 274.496C762.567 275.872 761.399 276.896 759.991 277.568C758.615 278.24 756.839 278.576 754.663 278.576C752.679 278.576 750.903 278.128 749.335 277.232C747.799 276.304 746.599 275.04 745.735 273.44C744.903 271.808 744.487 269.968 744.487 267.92C744.487 266.032 744.919 264.32 745.783 262.784C746.647 261.216 747.831 259.984 749.335 259.088C750.839 258.192 752.535 257.744 754.423 257.744C756.151 257.744 757.719 258.16 759.127 258.992C760.567 259.792 761.703 260.944 762.535 262.448C763.399 263.92 763.831 265.616 763.831 267.536C763.831 267.984 763.815 268.288 763.783 268.448H748.039ZM760.327 266.384C760.263 265.424 759.991 264.496 759.511 263.6C759.063 262.672 758.407 261.904 757.543 261.296C756.679 260.688 755.655 260.384 754.471 260.384C752.615 260.384 751.127 260.992 750.007 262.208C748.887 263.424 748.279 264.816 748.183 266.384H760.327ZM783.797 278L777.173 269.84L770.549 278H766.613L775.157 267.824L767.477 258.32H771.653L777.317 265.472L783.077 258.32H787.013L779.381 267.632L787.973 278H783.797ZM794.984 250.208H798.536V258.32H803.72V261.392H798.536V271.856C798.536 273.04 798.744 273.92 799.16 274.496C799.576 275.072 800.152 275.36 800.888 275.36C801.432 275.36 801.896 275.264 802.28 275.072C802.664 274.88 802.904 274.704 803 274.544L804.488 277.28C804.232 277.536 803.704 277.808 802.904 278.096C802.104 278.416 801.176 278.576 800.12 278.576C798.584 278.576 797.336 278.112 796.376 277.184C795.448 276.224 794.984 274.8 794.984 272.912V261.392H791.048V258.32H794.984V250.208ZM811.025 268.448C811.057 269.728 811.345 270.928 811.889 272.048C812.433 273.168 813.201 274.064 814.193 274.736C815.217 275.408 816.417 275.744 817.793 275.744C820.449 275.744 822.673 274.576 824.465 272.24L826.481 274.496C825.553 275.872 824.385 276.896 822.977 277.568C821.601 278.24 819.825 278.576 817.649 278.576C815.665 278.576 813.889 278.128 812.321 277.232C810.785 276.304 809.585 275.04 808.721 273.44C807.889 271.808 807.473 269.968 807.473 267.92C807.473 266.032 807.905 264.32 808.769 262.784C809.633 261.216 810.817 259.984 812.321 259.088C813.825 258.192 815.521 257.744 817.409 257.744C819.137 257.744 820.705 258.16 822.113 258.992C823.553 259.792 824.689 260.944 825.521 262.448C826.385 263.92 826.817 265.616 826.817 267.536C826.817 267.984 826.801 268.288 826.769 268.448H811.025ZM823.313 266.384C823.249 265.424 822.977 264.496 822.497 263.6C822.049 262.672 821.393 261.904 820.529 261.296C819.665 260.688 818.641 260.384 817.457 260.384C815.601 260.384 814.113 260.992 812.993 262.208C811.873 263.424 811.265 264.816 811.169 266.384H823.313ZM842.966 257.744C844.31 257.744 845.574 258.032 846.758 258.608C847.974 259.152 848.95 260.032 849.686 261.248C850.454 262.432 850.838 263.904 850.838 265.664V278H847.238V266.384C847.238 264.432 846.774 262.976 845.846 262.016C844.918 261.056 843.67 260.576 842.102 260.576C841.11 260.576 840.134 260.864 839.174 261.44C838.246 262.016 837.494 262.8 836.918 263.792C836.342 264.784 836.054 265.872 836.054 267.056V278H832.502V258.32H836.054V261.92C836.182 261.344 836.582 260.736 837.254 260.096C837.926 259.424 838.758 258.864 839.75 258.416C840.774 257.968 841.846 257.744 842.966 257.744ZM864.132 257.744C865.636 257.744 866.948 257.968 868.068 258.416C869.188 258.864 869.988 259.248 870.468 259.568L868.932 261.872C868.324 261.456 867.7 261.104 867.06 260.816C866.42 260.496 865.54 260.336 864.42 260.336C863.172 260.336 862.148 260.592 861.348 261.104C860.548 261.584 860.148 262.272 860.148 263.168C860.148 264 860.532 264.688 861.3 265.232C862.1 265.744 863.268 266.192 864.804 266.576C866.788 267.056 868.324 267.728 869.412 268.592C870.5 269.424 871.044 270.704 871.044 272.432C871.044 274.48 870.244 276.016 868.644 277.04C867.044 278.064 865.092 278.576 862.788 278.576C860.964 278.576 859.476 278.336 858.324 277.856C857.172 277.344 856.308 276.864 855.732 276.416L857.316 273.824C857.348 273.824 857.556 273.984 857.94 274.304C858.324 274.624 858.964 274.944 859.86 275.264C860.756 275.584 861.684 275.744 862.644 275.744C864.052 275.744 865.204 275.44 866.1 274.832C866.996 274.224 867.444 273.424 867.444 272.432C867.444 271.408 867.044 270.656 866.244 270.176C865.476 269.664 864.324 269.216 862.788 268.832C860.932 268.384 859.428 267.712 858.276 266.816C857.156 265.92 856.596 264.672 856.596 263.072C856.596 261.472 857.332 260.192 858.804 259.232C860.276 258.24 862.052 257.744 864.132 257.744ZM878.89 251.024C878.186 251.024 877.594 250.784 877.114 250.304C876.666 249.824 876.442 249.248 876.442 248.576C876.442 247.872 876.682 247.28 877.162 246.8C877.642 246.32 878.218 246.08 878.89 246.08C879.562 246.08 880.138 246.32 880.618 246.8C881.13 247.28 881.386 247.872 881.386 248.576C881.386 249.248 881.146 249.824 880.666 250.304C880.186 250.784 879.594 251.024 878.89 251.024ZM880.618 258.32V278H877.066V258.32H880.618ZM896.681 278.576C894.729 278.576 892.953 278.128 891.353 277.232C889.785 276.304 888.553 275.056 887.657 273.488C886.793 271.888 886.361 270.128 886.361 268.208C886.361 266.288 886.793 264.528 887.657 262.928C888.553 261.328 889.785 260.064 891.353 259.136C892.953 258.208 894.729 257.744 896.681 257.744C898.633 257.744 900.377 258.208 901.913 259.136C903.481 260.064 904.697 261.328 905.561 262.928C906.457 264.496 906.905 266.256 906.905 268.208C906.905 270.16 906.473 271.92 905.609 273.488C904.745 275.056 903.529 276.304 901.961 277.232C900.393 278.128 898.633 278.576 896.681 278.576ZM896.681 275.456C898.697 275.456 900.329 274.768 901.577 273.392C902.825 272.016 903.449 270.288 903.449 268.208C903.449 266.096 902.825 264.352 901.577 262.976C900.329 261.568 898.697 260.864 896.681 260.864C894.633 260.864 892.969 261.568 891.689 262.976C890.441 264.352 889.817 266.096 889.817 268.208C889.817 270.288 890.441 272.016 891.689 273.392C892.969 274.768 894.633 275.456 896.681 275.456ZM922.651 257.744C923.995 257.744 925.259 258.032 926.443 258.608C927.659 259.152 928.635 260.032 929.371 261.248C930.139 262.432 930.523 263.904 930.523 265.664V278H926.923V266.384C926.923 264.432 926.459 262.976 925.531 262.016C924.603 261.056 923.355 260.576 921.787 260.576C920.795 260.576 919.819 260.864 918.859 261.44C917.931 262.016 917.179 262.8 916.603 263.792C916.027 264.784 915.739 265.872 915.739 267.056V278H912.187V258.32H915.739V261.92C915.867 261.344 916.267 260.736 916.939 260.096C917.611 259.424 918.443 258.864 919.435 258.416C920.459 257.968 921.531 257.744 922.651 257.744ZM951.262 250.208H954.814V258.32H959.998V261.392H954.814V271.856C954.814 273.04 955.022 273.92 955.438 274.496C955.854 275.072 956.43 275.36 957.166 275.36C957.71 275.36 958.174 275.264 958.558 275.072C958.942 274.88 959.182 274.704 959.278 274.544L960.766 277.28C960.51 277.536 959.982 277.808 959.182 278.096C958.382 278.416 957.454 278.576 956.398 278.576C954.862 278.576 953.614 278.112 952.654 277.184C951.726 276.224 951.262 274.8 951.262 272.912V261.392H947.326V258.32H951.262V250.208ZM975.751 257.744C977.095 257.744 978.359 258.032 979.543 258.608C980.759 259.152 981.735 260.032 982.471 261.248C983.239 262.432 983.623 263.904 983.623 265.664V278H980.023V266.384C980.023 264.432 979.559 262.976 978.631 262.016C977.735 261.056 976.503 260.576 974.935 260.576C973.911 260.576 972.935 260.864 972.007 261.44C971.079 262.016 970.311 262.8 969.703 263.792C969.127 264.784 968.839 265.872 968.839 267.056V278H965.239V244.976H968.839V261.92C968.967 261.344 969.351 260.736 969.991 260.096C970.663 259.424 971.511 258.864 972.535 258.416C973.559 257.968 974.631 257.744 975.751 257.744ZM1006.08 274.016C1005.95 274.528 1005.55 275.152 1004.88 275.888C1004.2 276.592 1003.32 277.216 1002.24 277.76C1001.15 278.304 999.933 278.576 998.589 278.576C996.765 278.576 995.101 278.144 993.597 277.28C992.125 276.416 990.941 275.2 990.045 273.632C989.181 272.064 988.749 270.24 988.749 268.16C988.749 266.08 989.181 264.256 990.045 262.688C990.941 261.12 992.125 259.904 993.597 259.04C995.101 258.176 996.765 257.744 998.589 257.744C999.933 257.744 1001.15 258 1002.24 258.512C1003.32 259.024 1004.2 259.632 1004.88 260.336C1005.55 261.008 1005.95 261.616 1006.08 262.16V258.32H1009.58V278H1006.08V274.016ZM992.253 268.16C992.253 269.632 992.573 270.928 993.213 272.048C993.885 273.168 994.749 274.032 995.805 274.64C996.893 275.248 998.029 275.552 999.213 275.552C1001.16 275.552 1002.78 274.88 1004.06 273.536C1005.34 272.16 1005.98 270.368 1005.98 268.16C1005.98 265.952 1005.34 264.16 1004.06 262.784C1002.78 261.408 1001.16 260.72 999.213 260.72C998.029 260.72 996.893 261.04 995.805 261.68C994.749 262.288 993.885 263.152 993.213 264.272C992.573 265.392 992.253 266.688 992.253 268.16ZM1018.14 250.208H1021.69V258.32H1026.88V261.392H1021.69V271.856C1021.69 273.04 1021.9 273.92 1022.32 274.496C1022.73 275.072 1023.31 275.36 1024.04 275.36C1024.59 275.36 1025.05 275.264 1025.44 275.072C1025.82 274.88 1026.06 274.704 1026.16 274.544L1027.64 277.28C1027.39 277.536 1026.86 277.808 1026.06 278.096C1025.26 278.416 1024.33 278.576 1023.28 278.576C1021.74 278.576 1020.49 278.112 1019.53 277.184C1018.6 276.224 1018.14 274.8 1018.14 272.912V261.392H1014.2V258.32H1018.14V250.208ZM1060.78 278V274.016C1060.62 274.624 1060.2 275.28 1059.53 275.984C1058.89 276.688 1058.03 277.296 1056.94 277.808C1055.88 278.32 1054.7 278.576 1053.39 278.576C1051.56 278.576 1049.9 278.144 1048.39 277.28C1046.89 276.416 1045.69 275.2 1044.79 273.632C1043.93 272.064 1043.5 270.24 1043.5 268.16C1043.5 266.08 1043.93 264.256 1044.79 262.688C1045.69 261.12 1046.89 259.904 1048.39 259.04C1049.9 258.176 1051.56 257.744 1053.39 257.744C1054.76 257.744 1055.98 258 1057.03 258.512C1058.12 258.992 1058.97 259.584 1059.58 260.288C1060.22 260.96 1060.6 261.584 1060.73 262.16V244.976H1064.33V278H1060.78ZM1047 268.16C1047 269.632 1047.32 270.928 1047.96 272.048C1048.63 273.168 1049.5 274.032 1050.55 274.64C1051.61 275.248 1052.75 275.552 1053.96 275.552C1055.91 275.552 1057.53 274.88 1058.81 273.536C1060.09 272.16 1060.73 270.368 1060.73 268.16C1060.73 265.952 1060.09 264.16 1058.81 262.784C1057.53 261.408 1055.91 260.72 1053.96 260.72C1052.78 260.72 1051.64 261.04 1050.55 261.68C1049.5 262.288 1048.63 263.152 1047.96 264.272C1047.32 265.392 1047 266.688 1047 268.16ZM1071.75 268.448C1071.78 269.728 1072.07 270.928 1072.61 272.048C1073.16 273.168 1073.93 274.064 1074.92 274.736C1075.94 275.408 1077.14 275.744 1078.52 275.744C1081.17 275.744 1083.4 274.576 1085.19 272.24L1087.21 274.496C1086.28 275.872 1085.11 276.896 1083.7 277.568C1082.33 278.24 1080.55 278.576 1078.37 278.576C1076.39 278.576 1074.61 278.128 1073.05 277.232C1071.51 276.304 1070.31 275.04 1069.45 273.44C1068.61 271.808 1068.2 269.968 1068.2 267.92C1068.2 266.032 1068.63 264.32 1069.49 262.784C1070.36 261.216 1071.54 259.984 1073.05 259.088C1074.55 258.192 1076.25 257.744 1078.13 257.744C1079.86 257.744 1081.43 258.16 1082.84 258.992C1084.28 259.792 1085.41 260.944 1086.25 262.448C1087.11 263.92 1087.54 265.616 1087.54 267.536C1087.54 267.984 1087.53 268.288 1087.49 268.448H1071.75ZM1084.04 266.384C1083.97 265.424 1083.7 264.496 1083.22 263.6C1082.77 262.672 1082.12 261.904 1081.25 261.296C1080.39 260.688 1079.37 260.384 1078.18 260.384C1076.33 260.384 1074.84 260.992 1073.72 262.208C1072.6 263.424 1071.99 264.816 1071.89 266.384H1084.04ZM1095.43 250.208H1098.99V258.32H1104.17V261.392H1098.99V271.856C1098.99 273.04 1099.19 273.92 1099.61 274.496C1100.03 275.072 1100.6 275.36 1101.34 275.36C1101.88 275.36 1102.35 275.264 1102.73 275.072C1103.11 274.88 1103.35 274.704 1103.45 274.544L1104.94 277.28C1104.68 277.536 1104.15 277.808 1103.35 278.096C1102.55 278.416 1101.63 278.576 1100.57 278.576C1099.03 278.576 1097.79 278.112 1096.83 277.184C1095.9 276.224 1095.43 274.8 1095.43 272.912V261.392H1091.5V258.32H1095.43V250.208ZM1111.48 268.448C1111.51 269.728 1111.8 270.928 1112.34 272.048C1112.88 273.168 1113.65 274.064 1114.64 274.736C1115.67 275.408 1116.87 275.744 1118.24 275.744C1120.9 275.744 1123.12 274.576 1124.92 272.24L1126.93 274.496C1126 275.872 1124.84 276.896 1123.43 277.568C1122.05 278.24 1120.28 278.576 1118.1 278.576C1116.12 278.576 1114.34 278.128 1112.77 277.232C1111.24 276.304 1110.04 275.04 1109.17 273.44C1108.34 271.808 1107.92 269.968 1107.92 267.92C1107.92 266.032 1108.36 264.32 1109.22 262.784C1110.08 261.216 1111.27 259.984 1112.77 259.088C1114.28 258.192 1115.97 257.744 1117.86 257.744C1119.59 257.744 1121.16 258.16 1122.56 258.992C1124 259.792 1125.14 260.944 1125.97 262.448C1126.84 263.92 1127.27 265.616 1127.27 267.536C1127.27 267.984 1127.25 268.288 1127.22 268.448H1111.48ZM1123.76 266.384C1123.7 265.424 1123.43 264.496 1122.95 263.6C1122.5 262.672 1121.84 261.904 1120.98 261.296C1120.12 260.688 1119.09 260.384 1117.91 260.384C1116.05 260.384 1114.56 260.992 1113.44 262.208C1112.32 263.424 1111.72 264.816 1111.62 266.384H1123.76ZM1141.93 275.552C1143.05 275.552 1144.01 275.392 1144.81 275.072C1145.64 274.72 1146.23 274.384 1146.58 274.064L1148.36 276.656C1148.01 277.008 1147.19 277.424 1145.91 277.904C1144.66 278.352 1143.27 278.576 1141.74 278.576C1139.98 278.576 1138.33 278.176 1136.79 277.376C1135.29 276.544 1134.07 275.344 1133.14 273.776C1132.25 272.176 1131.8 270.288 1131.8 268.112C1131.8 265.936 1132.25 264.064 1133.14 262.496C1134.07 260.928 1135.29 259.744 1136.79 258.944C1138.33 258.144 1139.98 257.744 1141.74 257.744C1143.27 257.744 1144.62 257.984 1145.77 258.464C1146.95 258.944 1147.78 259.408 1148.26 259.856L1146.44 262.496C1146.02 262.08 1145.45 261.68 1144.71 261.296C1143.98 260.912 1143.05 260.72 1141.93 260.72C1140.81 260.72 1139.74 261.024 1138.71 261.632C1137.69 262.208 1136.86 263.072 1136.22 264.224C1135.58 265.344 1135.26 266.64 1135.26 268.112C1135.26 269.616 1135.58 270.928 1136.22 272.048C1136.86 273.168 1137.69 274.032 1138.71 274.64C1139.74 275.248 1140.81 275.552 1141.93 275.552ZM1155.28 250.208H1158.83V258.32H1164.02V261.392H1158.83V271.856C1158.83 273.04 1159.04 273.92 1159.46 274.496C1159.87 275.072 1160.45 275.36 1161.18 275.36C1161.73 275.36 1162.19 275.264 1162.58 275.072C1162.96 274.88 1163.2 274.704 1163.3 274.544L1164.78 277.28C1164.53 277.536 1164 277.808 1163.2 278.096C1162.4 278.416 1161.47 278.576 1160.42 278.576C1158.88 278.576 1157.63 278.112 1156.67 277.184C1155.74 276.224 1155.28 274.8 1155.28 272.912V261.392H1151.34V258.32H1155.28V250.208ZM1176.22 257.744C1177.72 257.744 1179.03 257.968 1180.15 258.416C1181.27 258.864 1182.07 259.248 1182.55 259.568L1181.02 261.872C1180.41 261.456 1179.79 261.104 1179.15 260.816C1178.51 260.496 1177.63 260.336 1176.51 260.336C1175.26 260.336 1174.23 260.592 1173.43 261.104C1172.63 261.584 1172.23 262.272 1172.23 263.168C1172.23 264 1172.62 264.688 1173.39 265.232C1174.19 265.744 1175.35 266.192 1176.89 266.576C1178.87 267.056 1180.41 267.728 1181.5 268.592C1182.59 269.424 1183.13 270.704 1183.13 272.432C1183.13 274.48 1182.33 276.016 1180.73 277.04C1179.13 278.064 1177.18 278.576 1174.87 278.576C1173.05 278.576 1171.56 278.336 1170.41 277.856C1169.26 277.344 1168.39 276.864 1167.82 276.416L1169.4 273.824C1169.43 273.824 1169.64 273.984 1170.03 274.304C1170.41 274.624 1171.05 274.944 1171.95 275.264C1172.84 275.584 1173.77 275.744 1174.73 275.744C1176.14 275.744 1177.29 275.44 1178.19 274.832C1179.08 274.224 1179.53 273.424 1179.53 272.432C1179.53 271.408 1179.13 270.656 1178.33 270.176C1177.56 269.664 1176.41 269.216 1174.87 268.832C1173.02 268.384 1171.51 267.712 1170.36 266.816C1169.24 265.92 1168.68 264.672 1168.68 263.072C1168.68 261.472 1169.42 260.192 1170.89 259.232C1172.36 258.24 1174.14 257.744 1176.22 257.744ZM1208.07 257.744C1209.57 257.744 1210.88 257.968 1212 258.416C1213.12 258.864 1213.92 259.248 1214.4 259.568L1212.87 261.872C1212.26 261.456 1211.64 261.104 1211 260.816C1210.36 260.496 1209.48 260.336 1208.36 260.336C1207.11 260.336 1206.08 260.592 1205.28 261.104C1204.48 261.584 1204.08 262.272 1204.08 263.168C1204.08 264 1204.47 264.688 1205.24 265.232C1206.04 265.744 1207.2 266.192 1208.74 266.576C1210.72 267.056 1212.26 267.728 1213.35 268.592C1214.44 269.424 1214.98 270.704 1214.98 272.432C1214.98 274.48 1214.18 276.016 1212.58 277.04C1210.98 278.064 1209.03 278.576 1206.72 278.576C1204.9 278.576 1203.41 278.336 1202.26 277.856C1201.11 277.344 1200.24 276.864 1199.67 276.416L1201.25 273.824C1201.28 273.824 1201.49 273.984 1201.88 274.304C1202.26 274.624 1202.9 274.944 1203.8 275.264C1204.69 275.584 1205.62 275.744 1206.58 275.744C1207.99 275.744 1209.14 275.44 1210.04 274.832C1210.93 274.224 1211.38 273.424 1211.38 272.432C1211.38 271.408 1210.98 270.656 1210.18 270.176C1209.41 269.664 1208.26 269.216 1206.72 268.832C1204.87 268.384 1203.36 267.712 1202.21 266.816C1201.09 265.92 1200.53 264.672 1200.53 263.072C1200.53 261.472 1201.27 260.192 1202.74 259.232C1204.21 258.24 1205.99 257.744 1208.07 257.744ZM1231.18 257.744C1232.52 257.744 1233.79 258.032 1234.97 258.608C1236.19 259.152 1237.16 260.032 1237.9 261.248C1238.67 262.432 1239.05 263.904 1239.05 265.664V278H1235.45V266.384C1235.45 264.432 1234.99 262.976 1234.06 262.016C1233.16 261.056 1231.93 260.576 1230.36 260.576C1229.34 260.576 1228.36 260.864 1227.43 261.44C1226.51 262.016 1225.74 262.8 1225.13 263.792C1224.55 264.784 1224.27 265.872 1224.27 267.056V278H1220.67V244.976H1224.27V261.92C1224.39 261.344 1224.78 260.736 1225.42 260.096C1226.09 259.424 1226.94 258.864 1227.96 258.416C1228.99 257.968 1230.06 257.744 1231.18 257.744ZM1261.5 274.016C1261.38 274.528 1260.98 275.152 1260.3 275.888C1259.63 276.592 1258.75 277.216 1257.66 277.76C1256.58 278.304 1255.36 278.576 1254.02 278.576C1252.19 278.576 1250.53 278.144 1249.02 277.28C1247.55 276.416 1246.37 275.2 1245.47 273.632C1244.61 272.064 1244.18 270.24 1244.18 268.16C1244.18 266.08 1244.61 264.256 1245.47 262.688C1246.37 261.12 1247.55 259.904 1249.02 259.04C1250.53 258.176 1252.19 257.744 1254.02 257.744C1255.36 257.744 1256.58 258 1257.66 258.512C1258.75 259.024 1259.63 259.632 1260.3 260.336C1260.98 261.008 1261.38 261.616 1261.5 262.16V258.32H1265.01V278H1261.5V274.016ZM1247.68 268.16C1247.68 269.632 1248 270.928 1248.64 272.048C1249.31 273.168 1250.18 274.032 1251.23 274.64C1252.32 275.248 1253.46 275.552 1254.64 275.552C1256.59 275.552 1258.21 274.88 1259.49 273.536C1260.77 272.16 1261.41 270.368 1261.41 268.16C1261.41 265.952 1260.77 264.16 1259.49 262.784C1258.21 261.408 1256.59 260.72 1254.64 260.72C1253.46 260.72 1252.32 261.04 1251.23 261.68C1250.18 262.288 1249.31 263.152 1248.64 264.272C1248 265.392 1247.68 266.688 1247.68 268.16ZM1287.82 278V274.016C1287.66 274.624 1287.25 275.28 1286.57 275.984C1285.93 276.688 1285.07 277.296 1283.98 277.808C1282.93 278.32 1281.74 278.576 1280.43 278.576C1278.61 278.576 1276.94 278.144 1275.44 277.28C1273.93 276.416 1272.73 275.2 1271.84 273.632C1270.97 272.064 1270.54 270.24 1270.54 268.16C1270.54 266.08 1270.97 264.256 1271.84 262.688C1272.73 261.12 1273.93 259.904 1275.44 259.04C1276.94 258.176 1278.61 257.744 1280.43 257.744C1281.81 257.744 1283.02 258 1284.08 258.512C1285.17 258.992 1286.01 259.584 1286.62 260.288C1287.26 260.96 1287.65 261.584 1287.77 262.16V244.976H1291.37V278H1287.82ZM1274.05 268.16C1274.05 269.632 1274.37 270.928 1275.01 272.048C1275.68 273.168 1276.54 274.032 1277.6 274.64C1278.65 275.248 1279.79 275.552 1281.01 275.552C1282.96 275.552 1284.57 274.88 1285.85 273.536C1287.13 272.16 1287.77 270.368 1287.77 268.16C1287.77 265.952 1287.13 264.16 1285.85 262.784C1284.57 261.408 1282.96 260.72 1281.01 260.72C1279.82 260.72 1278.69 261.04 1277.6 261.68C1276.54 262.288 1275.68 263.152 1275.01 264.272C1274.37 265.392 1274.05 266.688 1274.05 268.16ZM1305.52 278.576C1303.56 278.576 1301.79 278.128 1300.19 277.232C1298.62 276.304 1297.39 275.056 1296.49 273.488C1295.63 271.888 1295.2 270.128 1295.2 268.208C1295.2 266.288 1295.63 264.528 1296.49 262.928C1297.39 261.328 1298.62 260.064 1300.19 259.136C1301.79 258.208 1303.56 257.744 1305.52 257.744C1307.47 257.744 1309.21 258.208 1310.75 259.136C1312.32 260.064 1313.53 261.328 1314.4 262.928C1315.29 264.496 1315.74 266.256 1315.74 268.208C1315.74 270.16 1315.31 271.92 1314.44 273.488C1313.58 275.056 1312.36 276.304 1310.8 277.232C1309.23 278.128 1307.47 278.576 1305.52 278.576ZM1305.52 275.456C1307.53 275.456 1309.16 274.768 1310.41 273.392C1311.66 272.016 1312.28 270.288 1312.28 268.208C1312.28 266.096 1311.66 264.352 1310.41 262.976C1309.16 261.568 1307.53 260.864 1305.52 260.864C1303.47 260.864 1301.8 261.568 1300.52 262.976C1299.28 264.352 1298.65 266.096 1298.65 268.208C1298.65 270.288 1299.28 272.016 1300.52 273.392C1301.8 274.768 1303.47 275.456 1305.52 275.456ZM1324.57 278L1319.44 258.32H1323.23L1326.88 273.68L1331.92 258.704H1335.09L1340.13 273.68L1343.77 258.32H1347.57L1342.48 278H1338.59L1333.5 262.688L1328.41 278H1324.57ZM1356.18 244.976V262.16C1356.3 261.584 1356.67 260.96 1357.28 260.288C1357.92 259.584 1358.77 258.992 1359.82 258.512C1360.91 258 1362.14 257.744 1363.52 257.744C1365.34 257.744 1367.01 258.176 1368.51 259.04C1370.02 259.904 1371.2 261.12 1372.06 262.688C1372.96 264.256 1373.41 266.08 1373.41 268.16C1373.41 270.24 1372.96 272.064 1372.06 273.632C1371.2 275.2 1370.02 276.416 1368.51 277.28C1367.01 278.144 1365.34 278.576 1363.52 278.576C1362.21 278.576 1361.01 278.32 1359.92 277.808C1358.86 277.296 1358 276.688 1357.33 275.984C1356.69 275.28 1356.29 274.624 1356.13 274.016V278H1352.58V244.976H1356.18ZM1369.9 268.16C1369.9 266.688 1369.57 265.392 1368.9 264.272C1368.26 263.152 1367.39 262.288 1366.3 261.68C1365.25 261.04 1364.13 260.72 1362.94 260.72C1360.99 260.72 1359.38 261.408 1358.1 262.784C1356.82 264.16 1356.18 265.952 1356.18 268.16C1356.18 270.368 1356.82 272.16 1358.1 273.536C1359.38 274.88 1360.99 275.552 1362.94 275.552C1364.16 275.552 1365.3 275.248 1366.35 274.64C1367.41 274.032 1368.26 273.168 1368.9 272.048C1369.57 270.928 1369.9 269.632 1369.9 268.16ZM1394.03 274.016C1393.9 274.528 1393.5 275.152 1392.83 275.888C1392.16 276.592 1391.28 277.216 1390.19 277.76C1389.1 278.304 1387.89 278.576 1386.54 278.576C1384.72 278.576 1383.05 278.144 1381.55 277.28C1380.08 276.416 1378.89 275.2 1378 273.632C1377.13 272.064 1376.7 270.24 1376.7 268.16C1376.7 266.08 1377.13 264.256 1378 262.688C1378.89 261.12 1380.08 259.904 1381.55 259.04C1383.05 258.176 1384.72 257.744 1386.54 257.744C1387.89 257.744 1389.1 258 1390.19 258.512C1391.28 259.024 1392.16 259.632 1392.83 260.336C1393.5 261.008 1393.9 261.616 1394.03 262.16V258.32H1397.53V278H1394.03V274.016ZM1380.21 268.16C1380.21 269.632 1380.53 270.928 1381.17 272.048C1381.84 273.168 1382.7 274.032 1383.76 274.64C1384.85 275.248 1385.98 275.552 1387.17 275.552C1389.12 275.552 1390.73 274.88 1392.01 273.536C1393.29 272.16 1393.93 270.368 1393.93 268.16C1393.93 265.952 1393.29 264.16 1392.01 262.784C1390.73 261.408 1389.12 260.72 1387.17 260.72C1385.98 260.72 1384.85 261.04 1383.76 261.68C1382.7 262.288 1381.84 263.152 1381.17 264.272C1380.53 265.392 1380.21 266.688 1380.21 268.16ZM1414.35 257.744C1415.69 257.744 1416.96 258.032 1418.14 258.608C1419.36 259.152 1420.33 260.032 1421.07 261.248C1421.84 262.432 1422.22 263.904 1422.22 265.664V278H1418.62V266.384C1418.62 264.432 1418.16 262.976 1417.23 262.016C1416.3 261.056 1415.05 260.576 1413.48 260.576C1412.49 260.576 1411.52 260.864 1410.56 261.44C1409.63 262.016 1408.88 262.8 1408.3 263.792C1407.72 264.784 1407.44 265.872 1407.44 267.056V278H1403.88V258.32H1407.44V261.92C1407.56 261.344 1407.96 260.736 1408.64 260.096C1409.31 259.424 1410.14 258.864 1411.13 258.416C1412.16 257.968 1413.23 257.744 1414.35 257.744ZM1435.51 257.744C1437.02 257.744 1438.33 257.968 1439.45 258.416C1440.57 258.864 1441.37 259.248 1441.85 259.568L1440.31 261.872C1439.71 261.456 1439.08 261.104 1438.44 260.816C1437.8 260.496 1436.92 260.336 1435.8 260.336C1434.55 260.336 1433.53 260.592 1432.73 261.104C1431.93 261.584 1431.53 262.272 1431.53 263.168C1431.53 264 1431.91 264.688 1432.68 265.232C1433.48 265.744 1434.65 266.192 1436.19 266.576C1438.17 267.056 1439.71 267.728 1440.79 268.592C1441.88 269.424 1442.43 270.704 1442.43 272.432C1442.43 274.48 1441.63 276.016 1440.03 277.04C1438.43 278.064 1436.47 278.576 1434.17 278.576C1432.35 278.576 1430.86 278.336 1429.71 277.856C1428.55 277.344 1427.69 276.864 1427.11 276.416L1428.7 273.824C1428.73 273.824 1428.94 273.984 1429.32 274.304C1429.71 274.624 1430.35 274.944 1431.24 275.264C1432.14 275.584 1433.07 275.744 1434.03 275.744C1435.43 275.744 1436.59 275.44 1437.48 274.832C1438.38 274.224 1438.83 273.424 1438.83 272.432C1438.83 271.408 1438.43 270.656 1437.63 270.176C1436.86 269.664 1435.71 269.216 1434.17 268.832C1432.31 268.384 1430.81 267.712 1429.66 266.816C1428.54 265.92 1427.98 264.672 1427.98 263.072C1427.98 261.472 1428.71 260.192 1430.19 259.232C1431.66 258.24 1433.43 257.744 1435.51 257.744ZM1469.19 278.576C1467.24 278.576 1465.46 278.128 1463.86 277.232C1462.29 276.304 1461.06 275.056 1460.16 273.488C1459.3 271.888 1458.87 270.128 1458.87 268.208C1458.87 266.288 1459.3 264.528 1460.16 262.928C1461.06 261.328 1462.29 260.064 1463.86 259.136C1465.46 258.208 1467.24 257.744 1469.19 257.744C1471.14 257.744 1472.88 258.208 1474.42 259.136C1475.99 260.064 1477.2 261.328 1478.07 262.928C1478.96 264.496 1479.41 266.256 1479.41 268.208C1479.41 270.16 1478.98 271.92 1478.12 273.488C1477.25 275.056 1476.04 276.304 1474.47 277.232C1472.9 278.128 1471.14 278.576 1469.19 278.576ZM1469.19 275.456C1471.2 275.456 1472.84 274.768 1474.08 273.392C1475.33 272.016 1475.96 270.288 1475.96 268.208C1475.96 266.096 1475.33 264.352 1474.08 262.976C1472.84 261.568 1471.2 260.864 1469.19 260.864C1467.14 260.864 1465.48 261.568 1464.2 262.976C1462.95 264.352 1462.32 266.096 1462.32 268.208C1462.32 270.288 1462.95 272.016 1464.2 273.392C1465.48 274.768 1467.14 275.456 1469.19 275.456ZM1495.16 257.744C1496.5 257.744 1497.77 258.032 1498.95 258.608C1500.17 259.152 1501.14 260.032 1501.88 261.248C1502.65 262.432 1503.03 263.904 1503.03 265.664V278H1499.43V266.384C1499.43 264.432 1498.97 262.976 1498.04 262.016C1497.11 261.056 1495.86 260.576 1494.29 260.576C1493.3 260.576 1492.33 260.864 1491.37 261.44C1490.44 262.016 1489.69 262.8 1489.11 263.792C1488.53 264.784 1488.25 265.872 1488.25 267.056V278H1484.69V258.32H1488.25V261.92C1488.37 261.344 1488.77 260.736 1489.45 260.096C1490.12 259.424 1490.95 258.864 1491.94 258.416C1492.97 257.968 1494.04 257.744 1495.16 257.744ZM1519.54 246.32H1540.57V249.536H1531.83V278H1528.33V249.536H1519.54V246.32ZM1545.61 278L1540.47 258.32H1544.26L1547.91 273.68L1552.95 258.704H1556.12L1561.16 273.68L1564.81 258.32H1568.6L1563.51 278H1559.62L1554.54 262.688L1549.45 278H1545.61ZM1576.01 251.024C1575.31 251.024 1574.71 250.784 1574.23 250.304C1573.79 249.824 1573.56 249.248 1573.56 248.576C1573.56 247.872 1573.8 247.28 1574.28 246.8C1574.76 246.32 1575.34 246.08 1576.01 246.08C1576.68 246.08 1577.26 246.32 1577.74 246.8C1578.25 247.28 1578.51 247.872 1578.51 248.576C1578.51 249.248 1578.27 249.824 1577.79 250.304C1577.31 250.784 1576.71 251.024 1576.01 251.024ZM1577.74 258.32V278H1574.19V258.32H1577.74ZM1587.13 250.208H1590.68V258.32H1595.87V261.392H1590.68V271.856C1590.68 273.04 1590.89 273.92 1591.31 274.496C1591.72 275.072 1592.3 275.36 1593.03 275.36C1593.58 275.36 1594.04 275.264 1594.43 275.072C1594.81 274.88 1595.05 274.704 1595.15 274.544L1596.63 277.28C1596.38 277.536 1595.85 277.808 1595.05 278.096C1594.25 278.416 1593.32 278.576 1592.27 278.576C1590.73 278.576 1589.48 278.112 1588.52 277.184C1587.59 276.224 1587.13 274.8 1587.13 272.912V261.392H1583.19V258.32H1587.13V250.208ZM1602.99 250.208H1606.54V258.32H1611.72V261.392H1606.54V271.856C1606.54 273.04 1606.75 273.92 1607.16 274.496C1607.58 275.072 1608.15 275.36 1608.89 275.36C1609.43 275.36 1609.9 275.264 1610.28 275.072C1610.67 274.88 1610.91 274.704 1611 274.544L1612.49 277.28C1612.23 277.536 1611.71 277.808 1610.91 278.096C1610.11 278.416 1609.18 278.576 1608.12 278.576C1606.59 278.576 1605.34 278.112 1604.38 277.184C1603.45 276.224 1602.99 274.8 1602.99 272.912V261.392H1599.05V258.32H1602.99V250.208ZM1619.03 268.448C1619.06 269.728 1619.35 270.928 1619.89 272.048C1620.43 273.168 1621.2 274.064 1622.19 274.736C1623.22 275.408 1624.42 275.744 1625.79 275.744C1628.45 275.744 1630.67 274.576 1632.47 272.24L1634.48 274.496C1633.55 275.872 1632.39 276.896 1630.98 277.568C1629.6 278.24 1627.83 278.576 1625.65 278.576C1623.67 278.576 1621.89 278.128 1620.32 277.232C1618.79 276.304 1617.59 275.04 1616.72 273.44C1615.89 271.808 1615.47 269.968 1615.47 267.92C1615.47 266.032 1615.91 264.32 1616.77 262.784C1617.63 261.216 1618.82 259.984 1620.32 259.088C1621.83 258.192 1623.52 257.744 1625.41 257.744C1627.14 257.744 1628.71 258.16 1630.11 258.992C1631.55 259.792 1632.69 260.944 1633.52 262.448C1634.39 263.92 1634.82 265.616 1634.82 267.536C1634.82 267.984 1634.8 268.288 1634.77 268.448H1619.03ZM1631.31 266.384C1631.25 265.424 1630.98 264.496 1630.5 263.6C1630.05 262.672 1629.39 261.904 1628.53 261.296C1627.67 260.688 1626.64 260.384 1625.46 260.384C1623.6 260.384 1622.11 260.992 1620.99 262.208C1619.87 263.424 1619.27 264.816 1619.17 266.384H1631.31ZM1650.1 257.744C1650.93 257.744 1651.69 257.856 1652.36 258.08C1653.03 258.272 1653.56 258.512 1653.94 258.8L1652.45 261.776C1652.13 261.488 1651.69 261.248 1651.11 261.056C1650.57 260.864 1649.93 260.768 1649.19 260.768C1648.2 260.768 1647.3 261.104 1646.5 261.776C1645.73 262.416 1645.13 263.232 1644.68 264.224C1644.26 265.184 1644.05 266.096 1644.05 266.96V278H1640.5V258.32H1644.05V261.344C1644.41 260.512 1645.13 259.712 1646.21 258.944C1647.3 258.144 1648.6 257.744 1650.1 257.744ZM1661.66 278.576C1660.83 278.576 1660.13 278.288 1659.55 277.712C1658.97 277.104 1658.69 276.384 1658.69 275.552C1658.69 274.72 1658.97 274.016 1659.55 273.44C1660.13 272.832 1660.83 272.528 1661.66 272.528C1662.49 272.528 1663.2 272.832 1663.77 273.44C1664.38 274.016 1664.69 274.72 1664.69 275.552C1664.69 276.384 1664.38 277.104 1663.77 277.712C1663.2 278.288 1662.49 278.576 1661.66 278.576Z" fill="#fff" class="text"/>
<path d="M567.008 134.984C572.085 134.984 576.501 135.56 580.256 136.712C584.053 137.821 587.061 139.016 589.28 140.296C591.541 141.576 592.907 142.408 593.376 142.792L585.568 155.72C584.928 155.165 583.776 154.397 582.112 153.416C580.491 152.392 578.528 151.496 576.224 150.728C573.92 149.917 571.403 149.512 568.672 149.512C564.789 149.512 561.675 150.259 559.328 151.752C557.024 153.203 555.872 155.336 555.872 158.152C555.872 160.029 556.491 161.715 557.728 163.208C558.965 164.659 560.779 166.024 563.168 167.304C565.6 168.584 568.565 169.928 572.064 171.336C575.136 172.531 578.059 173.917 580.832 175.496C583.648 177.075 586.165 178.952 588.384 181.128C590.603 183.261 592.352 185.736 593.632 188.552C594.912 191.368 595.552 194.589 595.552 198.216C595.552 202.227 594.72 205.747 593.056 208.776C591.435 211.805 589.173 214.344 586.272 216.392C583.413 218.44 580.128 219.976 576.416 221C572.747 222.024 568.864 222.536 564.768 222.536C559.221 222.536 554.229 221.896 549.792 220.616C545.397 219.293 541.835 217.907 539.104 216.456C536.373 214.963 534.773 213.981 534.304 213.512L542.432 200.072C542.944 200.456 543.904 201.075 545.312 201.928C546.763 202.781 548.533 203.677 550.624 204.616C552.715 205.512 554.976 206.28 557.408 206.92C559.883 207.517 562.379 207.816 564.896 207.816C569.547 207.816 573.045 206.856 575.392 204.936C577.739 203.016 578.912 200.52 578.912 197.448C578.912 195.101 578.165 193.053 576.672 191.304C575.179 189.555 573.067 187.933 570.336 186.44C567.648 184.947 564.427 183.453 560.672 181.96C556.917 180.339 553.419 178.483 550.176 176.392C546.976 174.259 544.395 171.656 542.432 168.584C540.469 165.469 539.488 161.672 539.488 157.192C539.488 152.712 540.747 148.808 543.264 145.48C545.824 142.152 549.195 139.571 553.376 137.736C557.557 135.901 562.101 134.984 567.008 134.984ZM641.808 166.92C645.392 166.92 648.891 167.667 652.304 169.16C655.717 170.611 658.512 172.936 660.688 176.136C662.907 179.336 664.016 183.517 664.016 188.68V221H647.76V191.432C647.76 187.123 646.779 183.923 644.816 181.832C642.896 179.741 640.293 178.696 637.008 178.696C634.875 178.696 632.805 179.293 630.8 180.488C628.795 181.64 627.152 183.261 625.872 185.352C624.635 187.443 624.016 189.811 624.016 192.456V221H607.76V132.936H624.016V176.84C624.443 175.389 625.488 173.896 627.152 172.36C628.816 170.824 630.928 169.544 633.488 168.52C636.048 167.453 638.821 166.92 641.808 166.92ZM718.232 221V211.784C717.891 212.765 716.931 214.109 715.352 215.816C713.773 217.523 711.64 219.08 708.952 220.488C706.264 221.853 703.128 222.536 699.544 222.536C694.552 222.536 690.115 221.341 686.232 218.952C682.349 216.52 679.299 213.213 677.08 209.032C674.861 204.851 673.752 200.093 673.752 194.76C673.752 189.427 674.861 184.669 677.08 180.488C679.299 176.307 682.349 173 686.232 170.568C690.115 168.136 694.552 166.92 699.544 166.92C703.043 166.92 706.093 167.517 708.696 168.712C711.299 169.864 713.389 171.229 714.968 172.808C716.589 174.387 717.635 175.773 718.104 176.968V168.456H734.104V221H718.232ZM689.624 194.76C689.624 197.704 690.285 200.307 691.608 202.568C692.931 204.829 694.68 206.579 696.856 207.816C699.032 209.053 701.4 209.672 703.96 209.672C706.691 209.672 709.101 209.053 711.192 207.816C713.283 206.536 714.925 204.765 716.12 202.504C717.357 200.243 717.976 197.661 717.976 194.76C717.976 191.859 717.357 189.277 716.12 187.016C714.925 184.755 713.283 182.984 711.192 181.704C709.101 180.424 706.691 179.784 703.96 179.784C701.4 179.784 699.032 180.424 696.856 181.704C694.68 182.941 692.931 184.691 691.608 186.952C690.285 189.213 689.624 191.816 689.624 194.76ZM805.561 221H789.561V211.784C788.878 213.32 787.62 214.92 785.785 216.584C783.95 218.248 781.689 219.656 779.001 220.808C776.356 221.96 773.454 222.536 770.297 222.536C765.305 222.536 760.91 221.341 757.113 218.952C753.358 216.52 750.414 213.213 748.281 209.032C746.19 204.851 745.145 200.093 745.145 194.76C745.145 189.427 746.19 184.669 748.281 180.488C750.414 176.307 753.358 173 757.113 170.568C760.91 168.136 765.305 166.92 770.297 166.92C773.838 166.92 776.974 167.496 779.705 168.648C782.478 169.8 784.697 171.165 786.361 172.744C788.025 174.323 789.028 175.731 789.369 176.968V132.936H805.561V221ZM761.017 194.76C761.017 197.704 761.636 200.307 762.873 202.568C764.153 204.829 765.838 206.579 767.929 207.816C770.02 209.053 772.345 209.672 774.905 209.672C777.636 209.672 780.089 209.053 782.265 207.816C784.441 206.536 786.169 204.765 787.449 202.504C788.729 200.243 789.369 197.661 789.369 194.76C789.369 191.859 788.729 189.277 787.449 187.016C786.169 184.755 784.441 182.984 782.265 181.704C780.089 180.424 777.636 179.784 774.905 179.784C772.345 179.784 770.02 180.424 767.929 181.704C765.838 182.941 764.153 184.691 762.873 186.952C761.636 189.213 761.017 191.816 761.017 194.76ZM843.055 222.536C837.466 222.536 832.474 221.341 828.079 218.952C823.727 216.563 820.314 213.299 817.839 209.16C815.364 204.979 814.127 200.221 814.127 194.888C814.127 189.555 815.364 184.797 817.839 180.616C820.314 176.392 823.727 173.064 828.079 170.632C832.474 168.157 837.466 166.92 843.055 166.92C848.687 166.92 853.636 168.157 857.903 170.632C862.212 173.064 865.583 176.392 868.015 180.616C870.447 184.797 871.663 189.555 871.663 194.888C871.663 200.221 870.447 204.979 868.015 209.16C865.583 213.299 862.212 216.563 857.903 218.952C853.636 221.341 848.687 222.536 843.055 222.536ZM843.055 209.096C845.786 209.096 848.132 208.499 850.095 207.304C852.1 206.067 853.636 204.36 854.703 202.184C855.812 200.008 856.367 197.555 856.367 194.824C856.367 192.051 855.812 189.576 854.703 187.4C853.636 185.224 852.1 183.517 850.095 182.28C848.132 181 845.786 180.36 843.055 180.36C840.367 180.36 838.02 181 836.015 182.28C834.01 183.517 832.431 185.224 831.279 187.4C830.17 189.576 829.615 192.051 829.615 194.824C829.615 197.555 830.17 200.008 831.279 202.184C832.431 204.36 834.01 206.067 836.015 207.304C838.02 208.499 840.367 209.096 843.055 209.096ZM920.782 187.016L908.11 221H892.75L876.622 168.456H893.774L902.606 203.592L915.15 169.48H926.478L938.894 203.592L947.79 168.456H965.006L948.878 221H933.582L920.782 187.016ZM972.382 221V132.936H988.574V176.968C988.915 175.731 989.918 174.323 991.582 172.744C993.246 171.165 995.443 169.8 998.174 168.648C1000.95 167.496 1004.1 166.92 1007.65 166.92C1012.64 166.92 1017.01 168.136 1020.77 170.568C1024.56 173 1027.51 176.307 1029.6 180.488C1031.73 184.669 1032.8 189.427 1032.8 194.76C1032.8 200.093 1031.73 204.851 1029.6 209.032C1027.51 213.213 1024.56 216.52 1020.77 218.952C1017.01 221.341 1012.64 222.536 1007.65 222.536C1004.49 222.536 1001.57 221.96 998.878 220.808C996.233 219.656 993.993 218.248 992.158 216.584C990.323 214.92 989.065 213.32 988.382 211.784V221H972.382ZM1016.93 194.76C1016.93 191.816 1016.29 189.213 1015.01 186.952C1013.77 184.691 1012.1 182.941 1010.01 181.704C1007.92 180.424 1005.6 179.784 1003.04 179.784C1000.31 179.784 997.854 180.424 995.678 181.704C993.502 182.984 991.774 184.755 990.494 187.016C989.214 189.277 988.574 191.859 988.574 194.76C988.574 197.661 989.214 200.243 990.494 202.504C991.774 204.765 993.502 206.536 995.678 207.816C997.854 209.053 1000.31 209.672 1003.04 209.672C1005.6 209.672 1007.92 209.053 1010.01 207.816C1012.1 206.579 1013.77 204.829 1015.01 202.568C1016.29 200.307 1016.93 197.704 1016.93 194.76ZM1083.73 221V211.784C1083.39 212.765 1082.43 214.109 1080.85 215.816C1079.27 217.523 1077.14 219.08 1074.45 220.488C1071.76 221.853 1068.63 222.536 1065.04 222.536C1060.05 222.536 1055.61 221.341 1051.73 218.952C1047.85 216.52 1044.8 213.213 1042.58 209.032C1040.36 204.851 1039.25 200.093 1039.25 194.76C1039.25 189.427 1040.36 184.669 1042.58 180.488C1044.8 176.307 1047.85 173 1051.73 170.568C1055.61 168.136 1060.05 166.92 1065.04 166.92C1068.54 166.92 1071.59 167.517 1074.2 168.712C1076.8 169.864 1078.89 171.229 1080.47 172.808C1082.09 174.387 1083.13 175.773 1083.6 176.968V168.456H1099.6V221H1083.73ZM1055.12 194.76C1055.12 197.704 1055.79 200.307 1057.11 202.568C1058.43 204.829 1060.18 206.579 1062.36 207.816C1064.53 209.053 1066.9 209.672 1069.46 209.672C1072.19 209.672 1074.6 209.053 1076.69 207.816C1078.78 206.536 1080.43 204.765 1081.62 202.504C1082.86 200.243 1083.48 197.661 1083.48 194.76C1083.48 191.859 1082.86 189.277 1081.62 187.016C1080.43 184.755 1078.78 182.984 1076.69 181.704C1074.6 180.424 1072.19 179.784 1069.46 179.784C1066.9 179.784 1064.53 180.424 1062.36 181.704C1060.18 182.941 1058.43 184.691 1057.11 186.952C1055.79 189.213 1055.12 191.816 1055.12 194.76ZM1146.49 166.92C1150.07 166.92 1153.57 167.667 1156.98 169.16C1160.39 170.611 1163.19 172.936 1165.37 176.136C1167.58 179.336 1168.69 183.517 1168.69 188.68V221H1152.5V191.432C1152.5 187.123 1151.48 183.923 1149.43 181.832C1147.38 179.741 1144.71 178.696 1141.43 178.696C1139.25 178.696 1137.18 179.293 1135.22 180.488C1133.3 181.64 1131.72 183.261 1130.49 185.352C1129.29 187.443 1128.69 189.811 1128.69 192.456V221H1112.57V168.456H1128.69V176.84C1129.12 175.389 1130.17 173.896 1131.83 172.36C1133.54 170.824 1135.67 169.544 1138.23 168.52C1140.79 167.453 1143.54 166.92 1146.49 166.92ZM1243.51 134.984C1248.59 134.984 1253 135.56 1256.76 136.712C1260.55 137.821 1263.56 139.016 1265.78 140.296C1268.04 141.576 1269.41 142.408 1269.88 142.792L1262.07 155.72C1261.43 155.165 1260.28 154.397 1258.61 153.416C1256.99 152.392 1255.03 151.496 1252.72 150.728C1250.42 149.917 1247.9 149.512 1245.17 149.512C1241.29 149.512 1238.17 150.259 1235.83 151.752C1233.52 153.203 1232.37 155.336 1232.37 158.152C1232.37 160.029 1232.99 161.715 1234.23 163.208C1235.47 164.659 1237.28 166.024 1239.67 167.304C1242.1 168.584 1245.07 169.928 1248.56 171.336C1251.64 172.531 1254.56 173.917 1257.33 175.496C1260.15 177.075 1262.67 178.952 1264.88 181.128C1267.1 183.261 1268.85 185.736 1270.13 188.552C1271.41 191.368 1272.05 194.589 1272.05 198.216C1272.05 202.227 1271.22 205.747 1269.56 208.776C1267.93 211.805 1265.67 214.344 1262.77 216.392C1259.91 218.44 1256.63 219.976 1252.92 221C1249.25 222.024 1245.36 222.536 1241.27 222.536C1235.72 222.536 1230.73 221.896 1226.29 220.616C1221.9 219.293 1218.33 217.907 1215.6 216.456C1212.87 214.963 1211.27 213.981 1210.8 213.512L1218.93 200.072C1219.44 200.456 1220.4 201.075 1221.81 201.928C1223.26 202.781 1225.03 203.677 1227.12 204.616C1229.21 205.512 1231.48 206.28 1233.91 206.92C1236.38 207.517 1238.88 207.816 1241.4 207.816C1246.05 207.816 1249.55 206.856 1251.89 204.936C1254.24 203.016 1255.41 200.52 1255.41 197.448C1255.41 195.101 1254.67 193.053 1253.17 191.304C1251.68 189.555 1249.57 187.933 1246.84 186.44C1244.15 184.947 1240.93 183.453 1237.17 181.96C1233.42 180.339 1229.92 178.483 1226.68 176.392C1223.48 174.259 1220.89 171.656 1218.93 168.584C1216.97 165.469 1215.99 161.672 1215.99 157.192C1215.99 152.712 1217.25 148.808 1219.76 145.48C1222.32 142.152 1225.69 139.571 1229.88 137.736C1234.06 135.901 1238.6 134.984 1243.51 134.984ZM1311.46 209.672C1314.23 209.672 1316.49 209.203 1318.24 208.264C1319.99 207.325 1321.15 206.621 1321.7 206.152L1329.25 217.288C1328.65 217.757 1327.52 218.419 1325.86 219.272C1324.24 220.125 1322.17 220.872 1319.65 221.512C1317.18 222.195 1314.36 222.536 1311.2 222.536C1305.61 222.536 1300.62 221.427 1296.23 219.208C1291.88 216.947 1288.42 213.747 1285.86 209.608C1283.34 205.427 1282.08 200.456 1282.08 194.696C1282.08 188.893 1283.34 183.923 1285.86 179.784C1288.42 175.645 1291.88 172.467 1296.23 170.248C1300.62 168.029 1305.61 166.92 1311.2 166.92C1314.32 166.92 1317.11 167.261 1319.59 167.944C1322.06 168.627 1324.13 169.416 1325.8 170.312C1327.46 171.165 1328.59 171.869 1329.19 172.424L1321.51 183.624C1321.21 183.283 1320.63 182.813 1319.78 182.216C1318.93 181.619 1317.8 181.064 1316.39 180.552C1315.02 180.04 1313.38 179.784 1311.46 179.784C1309.07 179.784 1306.81 180.403 1304.68 181.64C1302.59 182.877 1300.88 184.627 1299.56 186.888C1298.23 189.107 1297.57 191.709 1297.57 194.696C1297.57 197.683 1298.23 200.307 1299.56 202.568C1300.88 204.829 1302.59 206.579 1304.68 207.816C1306.81 209.053 1309.07 209.672 1311.46 209.672ZM1379.73 221V211.784C1379.39 212.765 1378.43 214.109 1376.85 215.816C1375.27 217.523 1373.14 219.08 1370.45 220.488C1367.76 221.853 1364.63 222.536 1361.04 222.536C1356.05 222.536 1351.61 221.341 1347.73 218.952C1343.85 216.52 1340.8 213.213 1338.58 209.032C1336.36 204.851 1335.25 200.093 1335.25 194.76C1335.25 189.427 1336.36 184.669 1338.58 180.488C1340.8 176.307 1343.85 173 1347.73 170.568C1351.61 168.136 1356.05 166.92 1361.04 166.92C1364.54 166.92 1367.59 167.517 1370.2 168.712C1372.8 169.864 1374.89 171.229 1376.47 172.808C1378.09 174.387 1379.13 175.773 1379.6 176.968V168.456H1395.6V221H1379.73ZM1351.12 194.76C1351.12 197.704 1351.79 200.307 1353.11 202.568C1354.43 204.829 1356.18 206.579 1358.36 207.816C1360.53 209.053 1362.9 209.672 1365.46 209.672C1368.19 209.672 1370.6 209.053 1372.69 207.816C1374.78 206.536 1376.43 204.765 1377.62 202.504C1378.86 200.243 1379.48 197.661 1379.48 194.76C1379.48 191.859 1378.86 189.277 1377.62 187.016C1376.43 184.755 1374.78 182.984 1372.69 181.704C1370.6 180.424 1368.19 179.784 1365.46 179.784C1362.9 179.784 1360.53 180.424 1358.36 181.704C1356.18 182.941 1354.43 184.691 1353.11 186.952C1351.79 189.213 1351.12 191.816 1351.12 194.76ZM1442.49 166.92C1446.07 166.92 1449.57 167.667 1452.98 169.16C1456.39 170.611 1459.19 172.936 1461.37 176.136C1463.58 179.336 1464.69 183.517 1464.69 188.68V221H1448.5V191.432C1448.5 187.123 1447.48 183.923 1445.43 181.832C1443.38 179.741 1440.71 178.696 1437.43 178.696C1435.25 178.696 1433.18 179.293 1431.22 180.488C1429.3 181.64 1427.72 183.261 1426.49 185.352C1425.29 187.443 1424.69 189.811 1424.69 192.456V221H1408.57V168.456H1424.69V176.84C1425.12 175.389 1426.17 173.896 1427.83 172.36C1429.54 170.824 1431.67 169.544 1434.23 168.52C1436.79 167.453 1439.54 166.92 1442.49 166.92ZM1510.74 166.92C1514.32 166.92 1517.82 167.667 1521.23 169.16C1524.64 170.611 1527.44 172.936 1529.62 176.136C1531.83 179.336 1532.94 183.517 1532.94 188.68V221H1516.75V191.432C1516.75 187.123 1515.73 183.923 1513.68 181.832C1511.63 179.741 1508.96 178.696 1505.68 178.696C1503.5 178.696 1501.43 179.293 1499.47 180.488C1497.55 181.64 1495.97 183.261 1494.74 185.352C1493.54 187.443 1492.94 189.811 1492.94 192.456V221H1476.82V168.456H1492.94V176.84C1493.37 175.389 1494.42 173.896 1496.08 172.36C1497.79 170.824 1499.92 169.544 1502.48 168.52C1505.04 167.453 1507.79 166.92 1510.74 166.92ZM1557.93 198.408C1558.01 200.755 1558.63 202.845 1559.79 204.68C1560.94 206.515 1562.58 207.965 1564.71 209.032C1566.89 210.056 1569.51 210.568 1572.59 210.568C1575.32 210.568 1577.73 210.227 1579.82 209.544C1581.91 208.861 1583.68 208.051 1585.13 207.112C1586.62 206.131 1587.73 205.171 1588.46 204.232L1595.31 214.344C1594.11 215.837 1592.51 217.203 1590.51 218.44C1588.54 219.677 1586.03 220.659 1582.95 221.384C1579.92 222.152 1576.11 222.536 1571.5 222.536C1565.74 222.536 1560.66 221.405 1556.27 219.144C1551.91 216.883 1548.5 213.64 1546.03 209.416C1543.59 205.149 1542.38 200.051 1542.38 194.12C1542.38 189 1543.47 184.392 1545.64 180.296C1547.86 176.157 1551.04 172.893 1555.18 170.504C1559.36 168.115 1564.37 166.92 1570.22 166.92C1575.76 166.92 1580.56 167.987 1584.62 170.12C1588.67 172.211 1591.81 175.283 1594.03 179.336C1596.24 183.389 1597.35 188.36 1597.35 194.248C1597.35 194.589 1597.33 195.293 1597.29 196.36C1597.29 197.384 1597.25 198.067 1597.16 198.408H1557.93ZM1581.87 188.296C1581.82 186.931 1581.4 185.48 1580.59 183.944C1579.82 182.408 1578.6 181.107 1576.94 180.04C1575.32 178.931 1573.16 178.376 1570.47 178.376C1567.79 178.376 1565.55 178.909 1563.75 179.976C1562 181 1560.68 182.28 1559.79 183.816C1558.93 185.309 1558.44 186.803 1558.31 188.296H1581.87ZM1623.37 221H1607.24V168.456H1623.37V176.968H1623.05C1623.35 175.944 1624.16 174.643 1625.48 173.064C1626.84 171.485 1628.72 170.077 1631.11 168.84C1633.5 167.56 1636.38 166.92 1639.75 166.92C1642.18 166.92 1644.38 167.283 1646.34 168.008C1648.35 168.691 1649.78 169.373 1650.63 170.056L1644.3 183.304C1643.7 182.579 1642.63 181.875 1641.1 181.192C1639.6 180.467 1637.75 180.104 1635.53 180.104C1632.84 180.104 1630.58 180.851 1628.74 182.344C1626.95 183.795 1625.61 185.587 1624.71 187.72C1623.82 189.811 1623.37 191.773 1623.37 193.608V221Z" fill="#fff" class="text"/>
<defs>
<linearGradient id="paint0_linear_201_2" x1="457.25" y1="103.75" x2="264.75" y2="296.25" gradientUnits="userSpaceOnUse">
<stop stop-color="#269BEF"/>
<stop offset="0.0001" stop-color="#1EECF9"/>
<stop offset="1" stop-color="#4732CD"/>
</linearGradient>
</defs>
<style>
    @media (prefers-color-scheme: dark) {.text{fill:#fff;}}
    @media (prefers-color-scheme: light) {.text{fill:#555;}}
</style>
</svg>
