<?xml version="1.0" encoding="UTF-8" standalone="no"?>
<svg
   width="1870"
   height="200"
   viewBox="0 0 1870 200"
   fill="none"
   version="1.1"
   id="svg19"
   xmlns="http://www.w3.org/2000/svg"
   xmlns:svg="http://www.w3.org/2000/svg">
  <path
     fill-rule="evenodd"
     clip-rule="evenodd"
     d="m 185.35539,104.96841 c -2.48131,43.60845 -37.40564,78.53278 -81.01409,81.01409 v -14.93605 c 35.37242,-2.43794 63.6401,-30.70562 66.07804,-66.07804 z M 104.3413,14.01751 c 12.55688,0.71404 24.39298,4.11849 34.94265,9.6458 L 132.4654,36.9217 c -8.50488,-4.47118 -18.02444,-7.27241 -28.1241,-7.96814 z m 6.24905,65.44495 15.81487,-30.75381 c -6.6875,-3.53262 -14.14878,-5.79422 -22.06392,-6.46586 V 70.18765 H 94.404494 V 42.24279 C 66.353634,44.62388 43.996782,66.98074 41.615687,95.0316 h 16.351597 v 9.93681 H 41.615687 c 2.381095,28.05086 24.737947,50.40772 52.788807,52.78882 v -27.94487 h 9.936806 v 27.94487 c 28.05086,-2.3811 50.40772,-24.73796 52.78882,-52.78882 H 140.77851 V 95.0316 h 16.35161 C 155.95739,81.21431 149.93865,68.77981 140.77948,59.43177 l 9.32491,-9.41357 c 11.5817,11.75419 19.10947,27.51413 20.31495,45.0134 h 14.93605 C 184.12486,73.38975 174.90305,53.88712 160.59528,39.4271 l 9.32395,-9.41453 c 17.81919,17.96084 28.82657,42.68819 28.82657,69.98744 0,54.88179 -44.49111,99.3729 -99.372898,99.3729 C 44.491117,199.37291 0,154.8818 0,100.00001 0,45.11822 44.491117,0.62709 99.372902,0.62709 c 24.241688,0 46.456888,8.68026 63.704648,23.1027 l -0.70247,0.85473 0.004,0.002 -45.10301,54.87601 h 0.91062 c 2.4736,0 4.78146,0.34304 6.92358,1.02721 2.14212,0.68417 3.8641,1.81064 5.16691,3.37844 1.30281,1.54564 1.95421,3.6444 1.95421,6.29434 0,1.74414 -0.33148,3.30135 -0.99349,4.67065 -0.6408,1.36833 -1.50131,2.4948 -2.58345,3.37843 -1.05998,0.88268 -2.20861,1.45699 -3.44493,1.72199 1.1043,0.13298 2.17488,0.4529 3.2127,0.96072 1.03781,0.48566 1.97637,1.1708 2.81568,2.05347 0.86147,0.86147 1.54564,1.94361 2.05347,3.24642 0.50782,1.30281 0.76222,2.82725 0.76222,4.57139 0,2.45144 -0.55215,4.61573 -1.65646,6.49189 -1.08214,1.85496 -2.67211,3.31291 -4.7699,4.37289 -2.07563,1.03781 -4.62632,1.55624 -7.65207,1.55624 h -16.6948 V 79.46246 Z m -97.199941,25.50595 c 2.480347,43.60845 37.405644,78.53278 81.014085,81.01409 V 171.04645 C 59.03208,168.60851 30.764406,140.34083 28.326458,104.96841 Z m 0,-9.93681 H 28.326458 C 30.764406,59.65918 59.03208,31.39151 94.404494,28.95356 V 14.01751 C 50.796053,16.49786 15.870756,51.42316 13.390409,95.0316 Z M 88.964885,79.56267 c -2.031302,-0.59648 -4.394089,-0.8952 -7.08836,-0.8952 -2.606581,0 -5.034893,0.48663 -7.287828,1.45795 -2.229807,0.97133 -4.040442,2.35219 -5.431904,4.14066 -1.369298,1.78847 -2.053465,3.90843 -2.053465,6.35987 0,2.42928 0.518425,4.47214 1.55624,6.12763 1.037814,1.65646 2.384949,3.03636 4.041405,4.14066 1.678619,1.08214 3.477691,2.0207 5.399141,2.81569 1.921451,0.75065 3.522017,1.46855 4.802663,2.15272 1.302808,0.68513 2.275097,1.41362 2.914938,2.18644 0.662968,0.75066 0.994452,1.61213 0.994452,2.58346 0,1.32497 -0.519389,2.38495 -1.557204,3.17993 -1.037814,0.79498 -2.583454,1.19296 -4.63692,1.19296 -1.21512,0 -2.451439,-0.16575 -3.709922,-0.49723 -1.259446,-0.33052 -2.440839,-0.72849 -3.545143,-1.19199 -1.082141,-0.48567 -2.00914,-0.95013 -2.78196,-1.39147 -0.750657,-0.44133 -1.258483,-0.76222 -1.523477,-0.96072 l -4.902879,8.18206 c 0.287158,0.28716 1.159231,0.82775 2.617182,1.62273 1.456987,0.77282 3.367838,1.50228 5.730624,2.18645 2.38495,0.68417 5.067657,1.02721 8.049085,1.02721 2.119956,0 4.162822,-0.26596 6.127635,-0.79594 1.965777,-0.50783 3.721485,-1.29125 5.267125,-2.35123 1.5678,-1.05998 2.793519,-2.39651 3.676192,-4.00768 0.905797,-1.61213 1.358697,-3.52298 1.358697,-5.73062 0,-1.85496 -0.32088,-3.51142 -0.960724,-4.96937 -0.618641,-1.45699 -1.479151,-2.73763 -2.583455,-3.84194 -1.1043,-1.12646 -2.374346,-2.09779 -3.80917,-2.91494 -1.435788,-0.81714 -2.970828,-1.52347 -4.605121,-2.11995 -1.788472,-0.68417 -3.267622,-1.32497 -4.438416,-1.92145 -1.16983,-0.59648 -2.042866,-1.22572 -2.616217,-1.88772 -0.552152,-0.66297 -0.82871,-1.40303 -0.82871,-2.21921 0,-1.23729 0.529989,-2.15368 1.589966,-2.7492 1.059978,-0.61864 2.45144,-0.92796 4.173422,-0.92796 1.281609,0 2.495765,0.1985 3.644395,0.59648 1.16983,0.39701 2.174882,0.84991 3.014191,1.35773 0.861473,0.48566 1.468551,0.87207 1.821235,1.15923 l 4.70437,-7.88334 C 95.821973,82.5547 95.070353,82.1124 93.834033,81.4504 92.619881,80.78743 90.996188,80.15819 88.964885,79.56267 Z m 28.691665,35.80701 h -4.63692 v -10.69903 h 4.47118 c 1.98794,0 3.53358,0.43074 4.63788,1.29125 1.1043,0.83931 1.65646,2.15368 1.65646,3.94215 0,1.12647 -0.21007,2.09779 -0.63021,2.91494 -0.41917,0.81715 -1.08118,1.44639 -1.98698,1.88772 -0.88363,0.4423 -2.05346,0.66297 -3.51141,0.66297 z m -0.49626,-18.3511 h -4.14066 v -9.73831 h 3.74268 c 1.78847,0 3.2021,0.31992 4.23991,0.96073 1.03782,0.6408 1.55721,1.86556 1.55721,3.67619 0,1.01662 -0.21007,1.91086 -0.62925,2.68368 -0.39797,0.77282 -1.00505,1.36929 -1.82219,1.78847 -0.79499,0.41917 -1.77787,0.62924 -2.9477,0.62924 z"
     fill="url(#paint0_linear_201_2)"
     id="path2"
     style="fill:url(#paint0_linear_201_2);stroke-width:0.963616" />
  <path
     d="m 304.5707,38.23931 c 7.33437,0 13.71384,0.83211 19.13842,2.49632 5.48524,1.60209 9.83068,3.32842 13.0363,5.17754 3.26631,1.84913 5.23967,3.05106 5.9172,3.60579 l -11.27964,18.67613 c -0.92457,-0.80176 -2.58878,-1.91124 -4.99263,-3.32842 -2.34175,-1.47929 -5.17755,-2.77368 -8.50597,-3.88315 -3.32842,-1.17159 -6.96454,-1.75667 -10.90982,-1.75667 -5.60949,0 -10.10805,1.07914 -13.4986,3.23596 -3.32842,2.09616 -4.99263,5.17755 -4.99263,9.24562 0,2.71156 0.89423,5.14721 2.68123,7.30403 1.787,2.09616 4.40756,4.06807 7.85878,5.91719 3.51333,1.84912 7.79665,3.7907 12.85139,5.82473 4.4379,1.72634 8.66054,3.72859 12.66649,6.00965 4.06807,2.28107 7.70419,4.99263 10.90982,8.13614 3.20563,3.08139 5.73228,6.65684 7.58141,10.72492 1.84912,4.06806 2.77368,8.72121 2.77368,13.96087 0,5.79439 -1.20193,10.87948 -3.60579,15.25525 -2.34174,4.37578 -5.60949,8.04369 -9.80035,11.00228 -4.13019,2.9586 -8.87579,5.17754 -14.23824,6.65684 -5.30033,1.47929 -10.90982,2.21895 -16.82701,2.21895 -8.01335,0 -15.22492,-0.92456 -21.63473,-2.77369 -6.34914,-1.91123 -11.4949,-3.91349 -15.44018,-6.00964 -3.94527,-2.15683 -6.25668,-3.57545 -6.9342,-4.25299 l 11.74193,-19.41577 c 0.73965,0.55473 2.12648,1.44895 4.16052,2.68122 2.09616,1.23226 4.65315,2.52665 7.67385,3.88316 3.02072,1.29438 6.28702,2.40386 9.80036,3.32842 3.57545,0.86244 7.18124,1.29438 10.81736,1.29438 6.71896,0 11.77226,-1.38684 15.16281,-4.16052 3.39053,-2.77369 5.08507,-6.37947 5.08507,-10.81737 0,-3.39053 -1.07913,-6.34914 -3.23596,-8.87578 -2.15683,-2.52666 -5.20788,-4.86984 -9.15315,-7.02667 -3.88316,-2.15683 -8.5363,-4.3151 -13.96087,-6.47193 -5.42458,-2.34174 -10.47788,-5.02296 -15.16281,-8.04368 -4.6228,-3.08139 -8.35138,-6.84175 -11.18718,-11.27965 -2.8358,-4.50001 -4.25298,-9.98526 -4.25298,-16.45718 0,-6.47193 1.81878,-12.11176 5.4549,-16.91947 3.69825,-4.80772 8.56809,-8.5363 14.60807,-11.18719 6.03998,-2.65089 12.60437,-3.97562 19.69315,-3.97562 z m 108.05808,46.13561 c 5.17755,0 10.23229,1.07913 15.16281,3.23596 4.9305,2.09615 8.96824,5.45491 12.11174,10.07772 3.20563,4.62281 4.80773,10.66279 4.80773,18.12139 v 46.69034 H 421.2272 v -42.71472 c 0,-6.2249 -1.41718,-10.84771 -4.25298,-13.86842 -2.77369,-3.02072 -6.53405,-4.53035 -11.27965,-4.53035 -3.08138,0 -6.07176,0.86244 -8.96824,2.58878 -2.89648,1.66421 -5.26999,4.00594 -7.11912,7.02666 -1.78701,3.02071 -2.68123,6.44159 -2.68123,10.26263 v 41.23542 H 363.44213 V 35.28072 h 23.48385 v 63.42489 c 0.61686,-2.09615 2.12649,-4.25298 4.53036,-6.47192 2.40386,-2.21895 5.4549,-4.06807 9.15315,-5.54737 3.69824,-1.54141 7.7042,-2.3114 12.01929,-2.3114 z m 110.40416,78.12541 v -13.31368 c -0.49262,1.41718 -1.87947,3.35876 -4.16052,5.82473 -2.28107,2.46599 -5.36246,4.71527 -9.24562,6.7493 -3.88316,1.97191 -8.4135,2.9586 -13.59105,2.9586 -7.21157,0 -13.62138,-1.72633 -19.23087,-5.17754 -5.60949,-3.51334 -10.01559,-8.29072 -13.22122,-14.3307 -3.20563,-6.03998 -4.80772,-12.91352 -4.80772,-20.61771 0,-7.7042 1.60209,-14.57773 4.80772,-20.61771 3.20563,-6.04 7.61173,-10.81737 13.22122,-14.3307 5.60949,-3.51334 12.0193,-5.27 19.23087,-5.27 5.05476,0 9.46086,0.86243 13.22123,2.58877 3.76036,1.66421 6.77963,3.63612 9.06069,5.91719 2.34175,2.28107 3.85282,4.28331 4.53036,6.00965 V 86.59386 h 23.11402 v 75.90647 z m -41.32789,-37.907 c 0,4.25298 0.95491,8.01334 2.86615,11.27964 1.91124,3.2663 4.43789,5.7944 7.5814,7.5814 3.1435,1.787 6.56438,2.68123 10.26262,2.68123 3.94528,0 7.42683,-0.89423 10.44755,-2.68123 3.02071,-1.84912 5.39279,-4.40755 7.11911,-7.67386 1.78701,-3.26629 2.68123,-6.99633 2.68123,-11.18718 0,-4.19087 -0.89422,-7.92089 -2.68123,-11.1872 -1.72632,-3.26629 -4.0984,-5.82473 -7.11911,-7.67386 -3.02072,-1.84911 -6.50227,-2.77367 -10.44755,-2.77367 -3.69824,0 -7.11912,0.92456 -10.26262,2.77367 -3.14351,1.78701 -5.67016,4.31511 -7.5814,7.58141 -1.91124,3.2663 -2.86615,7.02666 -2.86615,11.27965 z m 167.48569,37.907 h -23.11402 v -13.31368 c -0.98668,2.21895 -2.80402,4.53035 -5.45491,6.93421 -2.65089,2.40386 -5.91719,4.4379 -9.80035,6.10211 -3.82103,1.66421 -8.01335,2.49631 -12.57403,2.49631 -7.21158,0 -13.56071,-1.72633 -19.04596,-5.17754 -5.42458,-3.51334 -9.67756,-8.29072 -12.75894,-14.3307 -3.02071,-6.03998 -4.53035,-12.91352 -4.53035,-20.61771 0,-7.7042 1.50964,-14.57773 4.53035,-20.61771 3.08138,-6.04 7.33436,-10.81737 12.75894,-14.3307 5.48525,-3.51334 11.83438,-5.27 19.04596,-5.27 5.11543,0 9.64577,0.8321 13.59105,2.49631 4.00595,1.66421 7.21158,3.63612 9.61544,5.91719 2.40386,2.28107 3.85282,4.3151 4.34543,6.10211 V 35.28072 h 23.39139 z m -64.34944,-37.907 c 0,4.25298 0.89422,8.01334 2.68122,11.27964 1.84912,3.2663 4.28332,5.7944 7.30404,7.5814 3.02071,1.787 6.37947,2.68123 10.07771,2.68123 3.94527,0 7.48895,-0.89423 10.63246,-2.68123 3.1435,-1.84912 5.63982,-4.40755 7.48894,-7.67386 1.84913,-3.26629 2.77368,-6.99633 2.77368,-11.18718 0,-4.19087 -0.92455,-7.92089 -2.77368,-11.1872 -1.84912,-3.26629 -4.34544,-5.82473 -7.48894,-7.67386 -3.14351,-1.84911 -6.68719,-2.77367 -10.63246,-2.77367 -3.69824,0 -7.057,0.92456 -10.07771,2.77367 -3.02072,1.78701 -5.45492,4.31511 -7.30404,7.58141 -1.787,3.2663 -2.68122,7.02666 -2.68122,11.27965 z m 118.51428,40.12595 c -8.07402,0 -15.28559,-1.72633 -21.63473,-5.17754 -6.28702,-3.45122 -11.21752,-8.16648 -14.79297,-14.14579 -3.57546,-6.03998 -5.36246,-12.91352 -5.36246,-20.61771 0,-7.7042 1.787,-14.57773 5.36246,-20.61772 3.57545,-6.1021 8.50595,-10.90982 14.79297,-14.42315 6.34914,-3.57545 13.56071,-5.36245 21.63473,-5.36245 8.13614,0 15.28558,1.787 21.44986,5.36245 6.22487,3.51333 11.09477,8.32105 14.60803,14.42315 3.51335,6.03999 5.26998,12.91352 5.26998,20.61772 0,7.70419 -1.75663,14.57773 -5.26998,20.61771 -3.51326,5.97931 -8.38316,10.69457 -14.60803,14.14579 -6.16428,3.45121 -13.31372,5.17754 -21.44986,5.17754 z m 0,-19.41579 c 3.94528,0 7.33438,-0.86244 10.17017,-2.58877 2.89651,-1.787 5.11541,-4.25298 6.65685,-7.39649 1.60212,-3.1435 2.40387,-6.68718 2.40387,-10.63245 0,-4.00595 -0.80175,-7.5814 -2.40387,-10.7249 -1.54144,-3.14352 -3.76034,-5.60949 -6.65685,-7.3965 -2.83579,-1.84912 -6.22489,-2.77368 -10.17017,-2.77368 -3.88315,0 -7.27369,0.92456 -10.17017,2.77368 -2.89648,1.78701 -5.17754,4.25298 -6.84175,7.3965 -1.60209,3.1435 -2.40386,6.71895 -2.40386,10.7249 0,3.94527 0.80177,7.48895 2.40386,10.63245 1.66421,3.14351 3.94527,5.60949 6.84175,7.39649 2.89648,1.72633 6.28702,2.58877 10.17017,2.58877 z m 112.28653,-31.89736 -18.30628,49.0942 H 775.1463 L 751.84738,86.59386 h 24.7783 l 12.75894,50.7584 18.12139,-49.2791 h 16.36475 l 17.93648,49.2791 12.8514,-50.7584 h 24.87065 l -23.29892,75.90647 h -22.09698 z m 74.54277,49.0942 V 35.28072 h 23.39137 v 63.60981 c 0.49263,-1.78701 1.94162,-3.82104 4.34539,-6.10211 2.40388,-2.28107 5.57773,-4.25298 9.52304,-5.91719 4.01029,-1.66421 8.56082,-2.49631 13.6893,-2.49631 7.20868,0 13.52171,1.75666 18.95351,5.27 5.4751,3.51333 9.7368,8.2907 12.756,14.3307 3.077,6.03998 4.6228,12.91351 4.6228,20.61771 0,7.70419 -1.5458,14.57773 -4.6228,20.61771 -3.0192,6.03998 -7.2809,10.81736 -12.756,14.3307 -5.4318,3.45121 -11.74483,5.17754 -18.95351,5.17754 -4.56509,0 -8.78334,-0.8321 -12.67226,-2.49631 -3.8211,-1.66421 -7.05701,-3.69825 -9.70794,-6.10211 -2.65092,-2.40386 -4.46824,-4.71526 -5.45488,-6.93421 v 13.31368 z m 64.35521,-37.907 c 0,-4.25299 -0.9246,-8.01335 -2.7737,-11.27965 -1.79131,-3.2663 -4.20388,-5.7944 -7.22313,-7.58141 -3.01926,-1.84911 -6.37078,-2.77367 -10.06903,-2.77367 -3.94384,0 -7.4918,0.92456 -10.63536,2.77367 -3.14346,1.84913 -5.63978,4.40757 -7.48896,7.67386 -1.84908,3.26631 -2.77366,6.99633 -2.77366,11.1872 0,4.19085 0.92458,7.92089 2.77366,11.18718 1.84918,3.26631 4.3455,5.82474 7.48896,7.67386 3.14356,1.787 6.69152,2.68123 10.63536,2.68123 3.69825,0 7.04977,-0.89423 10.06903,-2.68123 3.01925,-1.787 5.43182,-4.3151 7.22313,-7.5814 1.8491,-3.2663 2.7737,-7.02666 2.7737,-11.27964 z m 96.50101,37.907 v -13.31368 c -0.4911,1.41718 -1.878,3.35876 -4.1605,5.82473 -2.2825,2.46599 -5.3596,4.71527 -9.2456,6.7493 -3.886,1.97191 -8.4077,2.9586 -13.594,2.9586 -7.2087,0 -13.6227,-1.72633 -19.2279,-5.17754 -5.60521,-3.51334 -10.01131,-8.29072 -13.21841,-14.3307 -3.2071,-6.03998 -4.8106,-12.91352 -4.8106,-20.61771 0,-7.7042 1.6035,-14.57773 4.8106,-20.61771 3.2071,-6.04 7.6132,-10.81737 13.21841,-14.3307 5.6052,-3.51334 12.0192,-5.27 19.2279,-5.27 5.0563,0 9.4624,0.86243 13.2328,2.58877 3.7561,1.66421 6.7753,3.63612 9.0579,5.91719 2.3403,2.28107 3.8427,4.28331 4.5216,6.00965 V 86.59386 h 23.114 v 75.90647 z m -41.3308,-37.907 c 0,4.25298 0.9679,8.01334 2.8749,11.27964 1.9069,3.2663 4.435,5.7944 7.5843,7.5814 3.1348,1.787 6.5586,2.68123 10.2569,2.68123 3.9437,0 7.4253,-0.89423 10.4446,-2.68123 3.0192,-1.84912 5.4028,-4.40755 7.1219,-7.67386 1.7914,-3.26629 2.687,-6.99633 2.687,-11.18718 0,-4.19087 -0.8956,-7.92089 -2.687,-11.1872 -1.7191,-3.26629 -4.1027,-5.82473 -7.1219,-7.67386 -3.0193,-1.84911 -6.5009,-2.77367 -10.4446,-2.77367 -3.6983,0 -7.1221,0.92456 -10.2569,2.77367 -3.1493,1.78701 -5.6774,4.31511 -7.5843,7.58141 -1.907,3.2663 -2.8749,7.02666 -2.8749,11.27965 z m 131.9956,-40.21841 c 5.1718,0 10.2279,1.07913 15.1541,3.23596 4.9262,2.09615 8.9712,5.45491 12.1204,10.07772 3.1927,4.62281 4.7962,10.66279 4.7962,18.12139 v 46.69034 h -23.3885 v -42.71472 c 0,-6.2249 -1.4735,-10.84771 -4.435,-13.86842 -2.9615,-3.02072 -6.8186,-4.53035 -11.557,-4.53035 -3.1493,0 -6.1397,0.86244 -8.9711,2.58878 -2.7737,1.66421 -5.0563,4.00594 -6.8331,7.02666 -1.7336,3.02071 -2.6003,6.44159 -2.6003,10.26263 v 41.23542 h -23.2874 V 86.59386 h 23.2874 v 12.11175 c 0.6211,-2.09615 2.138,-4.25298 4.536,-6.47192 2.4704,-2.21895 5.5475,-4.06807 9.2457,-5.54737 3.6983,-1.54141 7.6709,-2.3114 11.9326,-2.3114 z m 140.1577,-46.13561 c 7.3387,0 13.7095,0.83211 19.1413,2.49632 5.4751,1.60209 9.8234,3.32842 13.0305,5.17754 3.2649,1.84913 5.244,3.05106 5.923,3.60579 l -11.2826,18.67613 c -0.9245,-0.80176 -2.5858,-1.91124 -4.9984,-3.32842 -2.3402,-1.47929 -5.1717,-2.77368 -8.5088,-3.88315 -3.3226,-1.17159 -6.9631,-1.75667 -10.9069,-1.75667 -5.6051,0 -10.1124,1.07914 -13.4928,3.23596 -3.3371,2.09616 -4.9984,5.17755 -4.9984,9.24562 0,2.71156 0.8956,5.14721 2.687,7.30403 1.7913,2.09616 4.406,4.06807 7.8587,5.91719 3.5104,1.84912 7.801,3.7907 12.8428,5.82473 4.4494,1.72634 8.6677,3.72859 12.6693,6.00965 4.0739,2.28107 7.7144,4.99263 10.907,8.13614 3.2071,3.08139 5.7351,6.65684 7.5842,10.72492 1.8492,4.06806 2.7738,8.72121 2.7738,13.96087 0,5.79439 -1.1991,10.87948 -3.5972,15.25525 -2.3547,4.37578 -5.6196,8.04369 -9.809,11.00228 -4.1316,2.9586 -8.87,5.17754 -14.2295,6.65684 -5.3019,1.47929 -10.9214,2.21895 -16.83,2.21895 -8.0176,0 -15.2263,-0.92456 -21.6405,-2.77369 -6.3419,-1.91123 -11.4992,-3.91349 -15.4431,-6.00964 -3.9438,-2.15683 -6.2551,-3.57545 -6.9341,-4.25299 l 11.7448,-19.41577 c 0.7368,0.55473 2.1236,1.44895 4.1605,2.68122 2.0947,1.23226 4.6517,2.52665 7.6709,3.88316 3.0194,1.29438 6.2987,2.40386 9.8091,3.32842 3.5682,0.86244 7.1798,1.29438 10.8203,1.29438 6.7175,0 11.7736,-1.38684 15.1541,-4.16052 3.3948,-2.77369 5.0851,-6.37947 5.0851,-10.81737 0,-3.39053 -1.0691,-6.34914 -3.236,-8.87578 -2.1525,-2.52666 -5.2006,-4.86984 -9.1445,-7.02667 -3.8861,-2.15683 -8.5377,-4.3151 -13.9696,-6.47193 -5.4173,-2.34174 -10.4735,-5.02296 -15.1541,-8.04368 -4.6228,-3.08139 -8.3644,-6.84175 -11.1958,-11.27965 -2.8315,-4.50001 -4.2473,-9.98526 -4.2473,-16.45718 0,-6.47193 1.8203,-12.11176 5.4463,-16.91947 3.6983,-4.80772 8.5667,-8.5363 14.6197,-11.18719 6.0385,-2.65089 12.5971,-3.97562 19.6902,-3.97562 z m 98.1624,107.89629 c 4.0016,0 7.2665,-0.67753 9.7946,-2.03404 2.5281,-1.3565 4.2038,-2.37351 4.9984,-3.05105 l 10.9069,16.08737 c -0.8668,0.67752 -2.4992,1.63387 -4.8973,2.86613 -2.3403,1.23227 -5.3307,2.3114 -8.9711,3.23597 -3.5683,0.98668 -7.6421,1.4793 -12.2071,1.4793 -8.0755,0 -15.2842,-1.60209 -21.626,-4.80772 -6.2842,-3.2663 -11.2826,-7.88911 -14.9809,-13.86842 -3.6404,-6.03998 -5.4606,-13.22122 -5.4606,-21.54227 0,-8.38317 1.8202,-15.56297 5.4606,-21.54227 3.6983,-5.97932 8.6967,-10.57034 14.9809,-13.77597 6.3418,-3.20562 13.5505,-4.80771 21.626,-4.80771 4.5072,0 8.5378,0.49261 12.1204,1.47929 3.5682,0.98669 6.5586,2.1265 8.9711,3.42088 2.3981,1.23226 4.0305,2.24928 4.8973,3.05106 l -11.0947,16.17981 c -0.4334,-0.49262 -1.2712,-1.17159 -2.4992,-2.03403 -1.2279,-0.86245 -2.8604,-1.66421 -4.8973,-2.40387 -1.9792,-0.73964 -4.3484,-1.10946 -7.122,-1.10946 -3.4527,0 -6.7175,0.89422 -9.7945,2.68123 -3.0194,1.787 -5.4896,4.31509 -7.3966,7.58139 -1.9214,3.20563 -2.8748,6.96455 -2.8748,11.27965 0,4.3151 0.9534,8.1058 2.8748,11.3721 1.907,3.2663 4.3772,5.7944 7.3966,7.5814 3.077,1.787 6.3418,2.68123 9.7945,2.68123 z m 98.6246,16.36473 v -13.31368 c -0.4911,1.41718 -1.878,3.35876 -4.1605,5.82473 -2.2825,2.46599 -5.3596,4.71527 -9.2455,6.7493 -3.8861,1.97191 -8.4078,2.9586 -13.5941,2.9586 -7.2086,0 -13.6227,-1.72633 -19.2279,-5.17754 -5.6052,-3.51334 -10.0113,-8.29072 -13.2184,-14.3307 -3.207,-6.03998 -4.8105,-12.91352 -4.8105,-20.61771 0,-7.7042 1.6035,-14.57773 4.8105,-20.61771 3.2071,-6.04 7.6132,-10.81737 13.2184,-14.3307 5.6052,-3.51334 12.0193,-5.27 19.2279,-5.27 5.0563,0 9.4624,0.86243 13.2329,2.58877 3.756,1.66421 6.7752,3.63612 9.0578,5.91719 2.3403,2.28107 3.8427,4.28331 4.5216,6.00965 V 86.59386 h 23.114 v 75.90647 z m -41.3307,-37.907 c 0,4.25298 0.9678,8.01334 2.8748,11.27964 1.9069,3.2663 4.435,5.7944 7.5843,7.5814 3.1348,1.787 6.5586,2.68123 10.2569,2.68123 3.9437,0 7.4253,-0.89423 10.4446,-2.68123 3.0192,-1.84912 5.4029,-4.40755 7.122,-7.67386 1.7913,-3.26629 2.687,-6.99633 2.687,-11.18718 0,-4.19087 -0.8957,-7.92089 -2.687,-11.1872 -1.7191,-3.26629 -4.1028,-5.82473 -7.122,-7.67386 -3.0193,-1.84911 -6.5009,-2.77367 -10.4446,-2.77367 -3.6983,0 -7.1221,0.92456 -10.2569,2.77367 -3.1493,1.78701 -5.6774,4.31511 -7.5843,7.58141 -1.907,3.2663 -2.8748,7.02666 -2.8748,11.27965 z m 131.9955,-40.21841 c 5.1718,0 10.2279,1.07913 15.1541,3.23596 4.9262,2.09615 8.9712,5.45491 12.1205,10.07772 3.1927,4.62281 4.7961,10.66279 4.7961,18.12139 v 46.69034 h -23.3885 v -42.71472 c 0,-6.2249 -1.4735,-10.84771 -4.435,-13.86842 -2.9614,-3.02072 -6.8186,-4.53035 -11.557,-4.53035 -3.1492,0 -6.1397,0.86244 -8.9711,2.58878 -2.7737,1.66421 -5.0563,4.00594 -6.8331,7.02666 -1.7336,3.02071 -2.6003,6.44159 -2.6003,10.26263 v 41.23542 h -23.2874 V 86.59386 h 23.2874 v 12.11175 c 0.6211,-2.09615 2.138,-4.25298 4.5361,-6.47192 2.4703,-2.21895 5.5474,-4.06807 9.2456,-5.54737 3.6983,-1.54141 7.671,-2.3114 11.9326,-2.3114 z m 98.5959,0 c 5.1716,0 10.2279,1.07913 15.1541,3.23596 4.9262,2.09615 8.9711,5.45491 12.1204,10.07772 3.1926,4.62281 4.7961,10.66279 4.7961,18.12139 v 46.69034 h -23.3884 v -42.71472 c 0,-6.2249 -1.4736,-10.84771 -4.4351,-13.86842 -2.9615,-3.02072 -6.8186,-4.53035 -11.557,-4.53035 -3.1493,0 -6.1396,0.86244 -8.9711,2.58878 -2.7737,1.66421 -5.0562,4.00594 -6.8332,7.02666 -1.7334,3.02071 -2.6003,6.44159 -2.6003,10.26263 v 41.23542 h -23.2874 V 86.59386 h 23.2874 v 12.11175 c 0.6213,-2.09615 2.1381,-4.25298 4.5362,-6.47192 2.4703,-2.21895 5.5473,-4.06807 9.2456,-5.54737 3.6982,-1.54141 7.671,-2.3114 11.9327,-2.3114 z m 68.1718,45.4884 c 0.1157,3.39054 1.0113,6.40981 2.687,9.06071 1.6614,2.65088 4.0306,4.74559 7.1077,6.28701 3.1492,1.47929 6.9341,2.21894 11.3836,2.21894 3.9438,0 7.4253,-0.49262 10.4446,-1.47929 3.0193,-0.98668 5.5763,-2.15683 7.671,-3.51334 2.1524,-1.41717 3.756,-2.80402 4.8106,-4.16052 l 9.8957,14.60807 c -1.7336,2.15683 -4.0449,4.13018 -6.9342,5.91719 -2.8459,1.787 -6.4719,3.20562 -10.9214,4.25298 -4.3773,1.10947 -9.8812,1.66421 -16.541,1.66421 -8.3211,0 -15.6597,-1.63388 -22.0017,-4.90018 -6.2985,-3.2663 -11.2247,-7.95122 -14.7929,-14.05333 -3.5249,-6.16422 -5.2729,-13.52893 -5.2729,-22.09701 0,-7.39648 1.5747,-14.05332 4.7095,-19.97052 3.207,-5.97931 7.8009,-10.69457 13.7817,-14.14578 6.0386,-3.45121 13.2761,-5.17754 21.7272,-5.17754 8.0033,0 14.9374,1.54141 20.8027,4.6228 5.8506,3.02071 10.3868,7.45861 13.5939,13.31369 3.1926,5.85506 4.7961,13.0363 4.7961,21.54227 0,0.49262 -0.029,1.50963 -0.087,3.05105 0,1.47929 -0.058,2.46598 -0.1877,2.95859 z m 34.5844,-14.60806 c -0.072,-1.97192 -0.679,-4.06807 -1.8491,-6.28701 -1.1124,-2.21896 -2.8748,-4.09841 -5.2729,-5.63983 -2.3403,-1.60209 -5.4607,-2.40386 -9.3467,-2.40386 -3.8717,0 -7.1076,0.76999 -9.708,2.3114 -2.528,1.4793 -4.4349,3.32842 -5.7207,5.54737 -1.2424,2.15683 -1.9502,4.3151 -2.138,6.47193 z m 59.952,47.24507 h -23.3018 V 86.59386 h 23.3018 v 12.29667 h -0.4623 c 0.4334,-1.47931 1.6036,-3.35876 3.5105,-5.63983 1.9647,-2.28106 4.6806,-4.3151 8.1332,-6.1021 3.4527,-1.84912 7.6133,-2.77368 12.4816,-2.77368 3.5104,0 6.6887,0.5244 9.5201,1.57175 2.9037,0.98668 4.9695,1.97191 6.1974,2.9586 l -9.1444,19.13841 c -0.8668,-1.04736 -2.4126,-2.06437 -4.6229,-3.05105 -2.1669,-1.04736 -4.8395,-1.57176 -8.0465,-1.57176 -3.8861,0 -7.1509,1.07914 -9.8091,3.23597 -2.5858,2.09615 -4.5217,4.68492 -5.8218,7.76631 -1.2857,3.02072 -1.9358,5.85507 -1.9358,8.50597 z"
     fill="#fff"
     class="text"
     id="path6"
     style="fill:#ffffff;fill-opacity:1;stroke-width:1.44463" />
  <defs
     id="defs15">
    <linearGradient
       id="paint0_linear_201_2"
       x1="457.25"
       y1="103.75"
       x2="264.75"
       y2="296.25"
       gradientUnits="userSpaceOnUse"
       gradientTransform="matrix(0.96361606,0,0,0.96361606,-248.4925,-92.723211)">
      <stop
         stop-color="#269BEF"
         id="stop8" />
      <stop
         offset="0.0001"
         stop-color="#1EECF9"
         id="stop10" />
      <stop
         offset="1"
         stop-color="#4732CD"
         id="stop12" />
    </linearGradient>
  </defs>
  <style
     id="style17">
    @media (prefers-color-scheme: dark) {.text{fill:#fff;}}
    @media (prefers-color-scheme: light) {.text{fill:#555;}}
</style>
</svg>
